<mxfile host="app.diagrams.net" modified="2021-03-12T17:34:31.927Z" agent="5.0 (Windows NT 10.0; Win64; x64) AppleWebKit/537.36 (KHTML, like Gecko) Chrome/88.0.4324.190 Safari/537.36" etag="YvV7p-xY2NJOW3RwvNPg" version="14.4.2" type="github">
  <diagram id="CmNvR6_kayaMUVh08n2Z" name="第 1 页">
    <mxGraphModel dx="1422" dy="800" grid="1" gridSize="10" guides="1" tooltips="1" connect="1" arrows="1" fold="1" page="1" pageScale="1" pageWidth="827" pageHeight="1169" math="0" shadow="0">
      <root>
        <mxCell id="0" />
        <mxCell id="1" parent="0" />
        <mxCell id="qxa5r1v7U55B4Vl_yPWk-3" value="&lt;font face=&quot;Times New Roman&quot; size=&quot;1&quot;&gt;&lt;i style=&quot;font-size: 27px&quot;&gt;x&lt;/i&gt;&lt;/font&gt;" style="text;html=1;resizable=0;autosize=1;align=center;verticalAlign=middle;points=[];fillColor=none;strokeColor=none;rounded=0;" vertex="1" parent="1">
          <mxGeometry x="600" y="470.97" width="30" height="20" as="geometry" />
        </mxCell>
        <mxCell id="qxa5r1v7U55B4Vl_yPWk-5" value="" style="shape=image;verticalLabelPosition=bottom;labelBackgroundColor=#ffffff;verticalAlign=top;aspect=fixed;imageAspect=0;image=data:image/png,iVBORw0KGgoAAAANSUhEUgAAA48AAAIhCAYAAADuCI8lAAAgAElEQVR4AeydiXskZb39/dOusq8KjLigCO6KOop4LzqIIqsIcwdBRBRQcX6AC+Iy4sURMPu+70ln35PuTjpJJ+nt/J63hgrV+1LVVd9vcvp5iq7lXU6fU53pD2/VWx8AX3SADtABOkAH6AAdoAN0gA7QATpAB8o48IEyx3mYDtABOkAH6AAdoAN0gA7QATpAB+gACI88CegAHaADdIAO0AE6QAfoAB2gA3SgrAOEx7IWsQAdoAN0gA7QATpAB+gAHaADdIAOFIXHCxcu4PTp09ja2irqkilz6tQpa3n++eeLluMBOkAH6AAdoAN0gA7QATpAB+gAHdDtQB489vb2WjB47tw5nDlzpig8mnI2XB4cHOCRRx6Bgcnc1+7uLubn57nQA54DPAd4DvAc4DnAc4DnAM8BngM8B3gOCDwHEolELsYV3M6DR7vUzMxMSXg0I41OWDQwaQDSgKTzdfHixaPRSXuUku+XRmvpA33gOcBzgOcAzwGeAzwHeA7wHOA5UPk58NGPnsJtn7gFn7nN5fKpW/D5O27GVz53ky/LVz9/E7755Y/gnrtkLXd8+maL1cxgXyWvmuDRAKIZmTSAab+KwaYNj/fccw+efvpp/PznP+eiyIPHH38czz77LDNTlNmPf/xj5qUoL/M3kZnp+nfhC1/4Au666y6Yv4/8N01Hds888wyeeOIJ5qXob6P5zXj27Flm5nNmzz7zJH721MP42VMPFVyeefK7ePondxdczj12Guce/Qaefuwr+OnDd+CnD3+m7HLugVtw7gfXV7U8/cD1+PVPrsUr/3uNq+XVp67B335xNd7+9ZW+LO/+9kp0/+FyjPzlMlHLo/feUH94NPdBmktaq4HH8+fPw1zCypcuB0zG6XRal+gTrnZycvKEO6Dv4zMzXZn98Ic/tH7UTk9P6xJ+gtUeHh5icXHxBDug76Ob34yrq6v6hNddcQbpw02k91eylmRsBMmt3qwlEWnHweqb+cvyXxGffangshf6KXbHf4zd8ccKLrGh7yI28M2CS6Tnawh334Xtni9gq+OT2Or4eNkl0nwNwg3/Vd3SeBnCLR9GpO3WmpZw263YbP0oNltvxWb7Hdjo/Gp9lo6vYK39S1hru7Sstn0Zyx13Y6nze2KWmeZ78Oh9n8Itt9xiXUpcyenr28gj4bGSOOSVITzKy6ScIoJIOYfkHWdm8jIppYjwWModmccIjzJzKaXquMJjJn2I9P4y0vF5a0luDyIRbkEi3IzDzSYcrPwd+wuvHi3xmeexO/kkdid+8t7yOHaG70Ns6N6sZbvPQNsXs5atrjsQbbslb4m03Fgc1gyUtX8Skfbb8pZw2yex0fkVbHR/u+Cy0v4NLLbcheXO72Gx+2Esdj9SdFnofgSz7T/CVPtZTLQ/i4n2n1e+dPwCk92/xWTPqzUtEz2vYqL7FYx3v4rx3j9jvO/Nuixjff/AWO8/MNH/T2sZ7/8/jA38B6ODLWKW9uZ/4rv/czduvvnm+sOjub/R3Odov8rd80h4tJ3S9U541JWXUUsQYWb6HNClmPCoKy+jlvCoLzMt8GhAMLUbQmpnAolwKw7W3sLB6j8Qn/st4tPPWcvu+KOIDX7n0jJwN7Z7v4rt3i9by1bXndjqvA1Rs3R80gK9SMsNOFqarkK44YMO2PsgIq23INJ5x9ES7vgMNrrvwUbvfUfLeu99WOl+APO9T+ctUx3PYLTzlcJL158w2vNXjPb8LW8Z6fkrRnr/DyN9bxdcOpv/hraGNzAy0ISRwXaMDHaUXEaHOjE6PICRkZGKl9HRUUxMTLhepqamrCsoze/cei+zs7OQuhh+M1eT1m3k0UySYz+SwwmL9myrTpi0/0zZ9zwSHm1HdL0THnXlZdQSHpmZPgd0KSY86srLqCU86sssSHjMpA/eA8IxHG424mD5DWskcG/yrHUpZ2zwv7HV/TmYkT1zeWa04+OXFjPK1/oRRFo/jEjztYg0X20t4cbL34e/pqsR6fgMIl1fsJbN3v/GRv9D2Oh/GOv9D2Op90nM9f/6aBnvfg1DXX/HYNc/3l+638Jgz9uO5d8Y7G3AYG9T1jLU14rhwZ68ZXRkAAbCcpexsTHrN4QBq0JLKBSyIGhubg6FlqGhIfT391c8k+rCwgKqXZaXl7G2tuZ6iUaj1hMlzK149VpisRj29vZEL8b/hx56qH73PDrh0fwZMtv27FDOmVedf6IIj0439K0THvVlRnhkZvoc0KWY8KgrL6OW8Kgvs3rCYzq+AHO56MHavxCffxl7U+ewM3Qvtnu+lAd+kaYrEW664tJi7rUzi2MkMNLxaUS6v4pIz9exOfAA1gfPYm3wp5gf/B1mBv9kLaO9b6Kvu+W9pRV9PW3o62l/b+lAX0/n0TLQ34Ohwf6jZWRkGAbq7GV8fBwG4sw91/ZifqsZCDD39bpZbDBbX19HoSUcDlugtb29jUKL0WBm7Nzf3y+7ZDIZfSflMVS8ubmJxx57zBt49MofwqNXTgbTDuExGN/d9Ep4dONeMHWZWTC+19or4bFW54KrR3gMzvtae64IHjNpIJMC0gmY0cJMah+Z1B7SB+tIhNusiWL2pp/DzuiPEOv7OqJtN783AvghhBvNcjnCjVdYy2bjldhsvAobjVdby2bXV7HZ8y1sDDyM1aFnsTz0AmaG3kBo6AKG+95Bb0+XdfuWueoud+nr68Pg4CDMSJxZDPjZl1qav/fOSxgNcBloq3RZWVmB+cHvXCKRCMwo187OTtYSj8etR+iZKwSdS62ZlKtnRvCMLr70OEB41JOVGqWERzVRHQkliBxZoWaFmamJyhJKeNSVl1FLeNSXWRY8GjhM7SKT2LJmGE3Fl5DanUJiswX7i3/EXuhn1uQx2z1fRsS6R/C/EDbvTVcj3HwjNps/gvXmW7DWdCtWmz6O1Y7TWOu5D6v9Z7E0+ALmB17G1NA/MTbYgP6+Hhj4M5df2svAwIAFg/a9eWb0z/zdtkHQXMJpRtyWlpZg4M4sZqZYe3FeZrmxsQEDe/ZiRvDMZ7UXM2pnzld70TTjfS3w2NXVBbeLvrNbjmLCo5wsjo0SwqO+KAkizEyfA7oUEx515WXUEh71ZJZJbluAuLs5grWZ/yAR7cLBygXEZ35l3W+43f0FRDs+cenSUQOHLR+2Hrmw0Xob1lo/g6WWL2Kx+UtY6nkUS71PWGBoLh+dHLqI4YF2CwhtGLRHBoeHL10aakYH7Xv9bCC0L+U0AGhfymkA0B75M8BkX8JpANCM9pnFnHOJRMJaNAGgmzOlVnh006cBT75qd4DwWLt3rFnEAcJjEWME7yY8Cg6niDRmVsQYobsJj0KDKSGL8FjCnKAOZZJIJ6JI7c0gudWHw413LUjcm/45dkZ+gK3eu7DRfNOlS0ubr0W49RQ222/HWvtXYB4JMdf6Pcx3/hhzvb/ATP8rCA3+HRODb2NosBcGDg0QmsVMCmNfNmrA0NwnaMDQ3BtoRggNENowaO7pMxOpmMW+DNRMeGJGA81lnwYGk8kkn39d5JxxA49VP+ux4b8sFYTHImFUuJvwWKFRLFa5A4THyr2SUpIgIiWJynUws8q9klCS8Cghheo0EB6r86sepTPJXaT25pCIduJg+W+Iz75oPbcwNvQ/1sylZoZSayKato8h3PFZrLTdhVDjdzDb/hCmu57BdM+vMdX/ugWIY4NN1r2ENhzal5HacGh+u5hLSM2ooQFDA4XmMlEDN04otO8JNOeHgcJUKgVO5FJ7+tLg0UzsaR4taMC/0Msctyf8NNrNIyvMuWO/zLHTp09b5429z6t3o+ncuXNZ/TnbNn0bfdW8nE/CMPVytwu1RXgs5Ar3uXKA8OjKvkAqE0QCsd1Vp8zMlX2+VyY8+m656w4Jj64trK6BTArpwzCSW/3WYy72Qs9emrRm4NvY6v4sogYUm65ApPUmbHZ9BSvd38dC948x2fEsrAe49/0F/e1/Q0vDPzEy1G+NHhpANHBozzRqRg/NZDPmvkIDiPajF8ykMYVGCw0YnpTLR6sLy7vSUuDRgJd5GkQpeDS/bw0sGs3mZcoa2DIv827qG7hzlrEOevQf08fLL79s9ZsLt0ab6Tt3fyVdm89uFvuVu23vt98Jj7YTfPfMAcKjZ1b61hBBxDerPeuImXlmpS8NER59sdnTTgiPntpZsLH04SYS4VbreYg7ow9hu+/r1nMQo603XQJF88zDzjux3vsDzPc8hYmu32K0+3XrofPD/Y0YHeqCeSyFfd+hmZzGXJJoINGMIpp7Du3RQwOI5oe1ydW+lNSGQ44cFozHl51S4NH+sKVG3gxU2SN7xWAtFzDtdu33cmBml8t9N+eu6dv4ZdqwodUu5wRZe1+l76ZNM9pqQ3Hudm47hMdcR7jt2gHCo2sLfW+AIOK75a47ZGauLfS1AcKjr3Z70hnh0RMbsxrJJHeQiPYiPvcyYkP/ja3OTyHadgsiLddfuk+x9WZs9n4bS/1PYar3VQx1v3npofZ9zRge7Mboe6BofmfYk9PYI4nmB625H9EcM9nZl5SakUOzEBCzohCzYUDFZFfNy75nMfeex0JtFCpj1y9Uvhg8GnhzXjJqytkg6WynVng07RuAM6OX9gios10ndObCXa42Zz173ei68847j6DT6DfbZn9u/dxtuw37nfBoO8F3zxwwJyIv8/DMTl8aIoj4YrOnnTAzT+2se2OEx7pb7HkHhEcPLM2kkYovYn/x99ZjMSxQNI/DMM9KbPggIi03INz3XSwN/grj/W+ir6cVfT0d6O/rxtDQoDWiaCarcT7E3gCiuR/RjCSa+w9tMDRwaGYuNcf50uOAl/CYC4qFto0ztcBjLlQ6Yc7pdq3wmDtyaLZNH+aVC4tmnzlmw2uh405N9rr9GUx5Jwib44X6N+ULvQiPhVzhPlcOEB5d2RdIZYJIILa76pSZubLP98qER98td90h4bEaCzNAJoVM+hCZVByJSCd2J59EtPNTlya0abwcm41XYtM8P7H7m1gZfA5TQ/+yRkHMD1TzbERzyam5P9F+9qGZuMYs5oeqmbDGzF5qLjMt9TLwaO5n5EuPA1rg0Qlzxt1c2LIdLwSP5jOaSXTsUUX73Z5Yp9hxGw7ttou9mz6d9zvmtueEQNOm6d8GU7vNXBjO3bbLmXfCo9MNrnviAOHRExt9bYQg4qvdnnTGzDyx0bdGCI++We1ZR4THclZmkEntw9y3mIyNWbOh7oz8EJfuV7wS4eYbsN58Cqutn8dy/1OYGfwLhhzPTDSPwzB/xwwsmtFCexIb88PXTF5j7kus9kV4rNax4MubvA2MVPOyRw4LjSyW22f6sesX6tMenTOXbtqvQkBYDK4KlbXbMe+F6hkPcmdtddYpt27qO+9ZLFW+GDzmwnDutrNNwqPTDa574gDh0RMbfW2EIOKr3Z50xsw8sdG3RgiPvlntWUeEx8JWmpHF1N6s9fiM/YVXEBv63qXLT5uuwUbrx7Ha8lksdd2PhYEXMT74jjWqODg4mDWyaEDRPCvR/Ajd3t62RhXNPYpu70skPBbOTPJeDfBogM/AlPNVaJ85Xgs8mnqmfWcf77zzTtFHcjh1mPVK4dMGY/P9c8KqAWUDn/YIZe52bn+Ex1xHuO3aAcKjawt9b4Ag4rvlrjtkZq4t9LUBwqOvdnvSGeHxfRstYNwN4XCzAfG5XyM28K1LwNh8LTba78BS27cw1/UEpgf+hLHBFgwNDlqPyjCzoJrfBPazE83Mp+YSVHOvooFFr1+ER68drX97buCxVnXVjDwWAylzXjsvFbW11AqPdj/2Ja0GTqt5lRopNO0YMLQnyDHbpn3nZbPOkctyI5mEx2qSYdmKHCA8VmSTqEIEEVFxVCSGmVVkk5hChEcxUVQs5MTDo3nu4v4KDjfexd7MLxAbvAfRtpsQab4Omx1fxELHfZjuegZT/W9gZLANw8PDMM9VNM9UNDOhmpFFJywaP92OLJYLj/BYziF5x2uFRwOAbpZKnbBH6wzc5b7KAVtu+XpuF4PZSvo0IOmE1dzt3DYIj7mOcNu1A4RH1xb63gBBxHfLXXfIzFxb6GsDhEdf7faks5MKj9aEN9EuxGdfuDRDascnEWm+GuH227HY/TAmu17EeN/fLWC071s0M6KaR2ZsbGxYl6GaexaNf2aCm3oDozNswqPTDR3rtcCjn5/MAKITrJx9G+3Oyz+dx4JYNzqdl75WoiEXjnO3C7VBeCzkCve5coDw6Mq+QCoTRAKx3VWnzMyVfb5XJjz6brnrDk8aPKbi89hf/CNiQ9/FVuftl5692PYxrPZ8H1PdL2Kk5+8YHmizLkc1o4uzs7PWIzTMD0nz2AwzMmMuRQ3yUV2ER9enve8NSIdH3w1R0CHhUUFI2iQSHrUlBmvGO32qT7ZiwqOu/AmPuvIyak8EPKYTSG71Y3f8UWx1fvrSfYzmsRpdX8N83y8x1P0mBvuaMTw8cHQ5qhlhtIHRzIjq9+hiqTOJ8FjKHZnHCI8ycymlivBYyh0eq8kBwmNNtgVaiSASqP01dc7MarItsEqEx8Csr7nj4wyPmWQMB6tvYrvva4g0XYVw42WItN6Mtf7HMdb3L/T1tGNgoA+TkxPWozQWFxetexjNCKMXs6LWHEqZioTHMgYJPEx4FBhKGUmExzIG8XD1DhAeq/cs6BoEkaATqL5/Zla9Z0HWIDwG6X5tfR8veMwA6QQMNMbnf4doxycQbvwQNhuvxIaZ/GbgRfT3tlszMo6MjFiXpJoZUs2U/ubHvRlh9PPexdoSAwiPtToXXD3CY3De19oz4bFW51ivqAOEx6LWiD1AEBEbTVFhzKyoNSIPEB5FxlJS1LGAx0wamUQUqZ0J7IWeQaT5WoSbrsJGy0ex0nUvQv1/xkBfJ8xzGM1jNcwlqQYYw+EwzKQ3Qd6/WDKcIgcJj0WMEbyb8Cg4nCLSCI9FjOHu2h0gPNbuXVA1CSJBOV97v8ysdu+CqEl4DMJ1d32qhkfzmI3DDSTCrdb9jJHWjyDcciNWW+7EYvejmBj4JwYGBmBGGc1MqfZzGM0zGM0oo9YX4VFfcoRHfZkRHvVlJl4x4VF8RHkCCSJ5lojfwczER5QlkPCYZYeKDZXwmEkhFV/A4fq/sTv+Y0Rbb8Jmy81YbvsG5nqexWj/2xgaGrKex2iexbi2toZoNGqNMpqJb7S/CI/6EiQ86suM8KgvM/GKCY/iI8oTSBDJs0T8DmYmPqIsgYTHLDtUbGiDx9T+Ig6W/oyd4fsQbT+FcMvNWGr/Nqa7f4mR/iZrlNH83bCfx2hGGc3jNbRdmlrq5CE8lnJH5jHCo8xcSqkiPJZyh8dqcoDwWJNtgVYiiARqf02dM7OabAusEuExMOtr7lgLPGaSOzhcewuxwf+2RhrDLbdgqfOHmOz+LUYH/oOx0WHrMRtmxlT7XkYtE+BUGx7hsVrHgi9PeAw+g2oVEB6rdYzlyzpAeCxrkbgCBBFxkZQVxMzKWiSqAOFRVBwViZEOj5nkLg7XLyI2dC+i7R9FuPk6rHQ/gLHuP2C4vxnjY6Mw/x4baDSXpppRxuNwaWqp8AiPpdyReYzwKDOXUqoIj6Xc4bGaHCA81mRboJUIIoHaX1PnzKwm2wKrRHgMzPqaOxYLj5kkktsD2Bn+/qWRxsYPYaP7Wxjp/isG+1owNvr+ozbMD3PzOY7TpamlAiU8lnJH5jHCo8xcSqkiPJZyh8dqcoDwWJNtgVYiiARqf02dM7OabAusEuExMOtr7lgiPKYP1rA78SQiLTdcek5j11cx0fM6+nrarXsazSQ4ZuZUM9J4XC9NLRUo4bGUOzKPER5l5lJKFeGxlDs8VpMDhMeabAu0EkEkUPtr6pyZ1WRbYJUIj4FZX3PHcuAxg0xqDwcrf0ek7SaEGy7DRuttmO75Jfp726xnNM7Pz1vQGIlEVD9qo+aw3qtIeHTroP/1CY/+e+62R8KjWwdZP88BwmOeJeJ3EETER5QnkJnlWSJ6B+FRdDwFxQUPjxlkkttIRLux3fNFhBsvx3rzrZjvehTD/Y3WIzfsZzSaH3NG70l/ER71nQGER32ZER71ZSZeMeFRfER5AgkieZaI38HMxEeUJZDwmGWHio0g4dGMNCa3B7E39ZQFjeZZjYvt/4OJvr9aI40TExNYWlqyZk+Nx+Mq/PRDJOHRD5e97YPw6K2ffrRGePTD5RPWB+FRX+AEEWamzwFdigmPuvIyagOBx0waqfgC9hdewVb3nQg334Cl1q9guvclDA70YHx8HOYSVfPjzYDSSZkIp9Kzh/BYqVNyyhEe5WRRqRLCY6VOsVzFDhAeK7ZKTEHCo5goKhbCzCq2SkRBwqOIGKoS4Tc8Ws9r3HgXOyM/QKT1w1hrvRMznecw3PdvjI5eeuzG+vo6dnZ2kEwmq/osJ6Uw4VFf0oRHfZkRHvVlJl4x4VF8RHkCCSJ5lojfwczER5QlkPCYZYeKDf/gMYN0fBF70z/HVuenEG65GQsd38dYz+sYGe5HKBSyLlHd3t62RkMzmYwK/4IQSXgMwnV3fRIe3fkXRG3CYxCuH/M+CY/6AiaIMDN9DuhS/OKLL+Ls2bMwE5zwpcMBv+DxcP0dxPq/iUjL9VhtvROT3S9huL8JExPjMI/eMDOo7u/v8xLVCk4bwmMFJgkrQngUFkgFcgiPFZjEItU5QHiszi8JpQmPElKoTgMzq86voEv//ve/JzwGHUKV/dcbHjOpfexNnkW09SaEm67BUuf9GOx+CyPDA5idncXKygrMZDi8r7Hy4AiPlXslpSThUUoSlesgPFbuFUtW6ADhsUKjBBUjiAgKo0IpzKxCo4QUIzwKCaIKGfWEx2RsBNu9X740k2rzjZjseQX9fV2YnLw0i6oZbeR9jVWE9V5RwmP1ngVdg/AYdALV9094rN4z1ijjAOGxjEECDxNEBIZSRhIzK2OQsMOER2GBVCDHe3g0z23cxf7iHxFtuwWb5rmNXd9BX0+L9fgNc4nq2tqaNdrI+xorCKhAEcJjAVOE7yI8Cg+ogDzCYwFTuMudA4RHd/4FUZsgEoTr7vpkZu7887s24dFvx9335yk8ZpJI7U1jd+JxRJqvw0bLrZjtfgb9/T0YGxvD8vKydW8jRxvd5UZ4dOdfELUJj0G47q5PwqM7/1i7gAOExwKmCN9FEBEeUAF5zKyAKYJ3ER4Fh1NEmlfwmEnFkdhsxnb/N7HZdA1W2r6O8e4/YGiwz7q30Tx+w0APRxuLBFHFbsJjFWYJKUp4FBJEFTIIj1WYxaKVOUB4rMwnSaUIIpLSqEwLM6vMJymlCI9SkqhchxfwmElEsL/wmvUIjvWmmzHX8RBG+t+xRhsXFhYQjUatx29UroolSzlAeCzljsxjhEeZuZRSRXgs5Q6P1eQA4bEm2wKtRBAJ1P6aOmdmNdkWWCXCY2DW19yxW3hM7YawN3UOkZYbsNZyOyY7n8PIYDumpqawurqKnZ0dzqRaczqFKxIeC/sieS/hUXI6hbURHgv7wr0uHCA8ujAvoKoEkYCMd9EtM3NhXgBVCY8BmO6ySzfwmIi0IzbwbYSbrsRK+zcw1vM6RkcuPYLD/PAyz23kZaouAypQnfBYwBThuwiPwgMqIM8zeLxw4QJOnTplLc8//3yBri7tMsfKlbt48aJV5vz589Z9AEUb4wGRDhAeRcZSUhRBpKQ9Ig8yM5GxFBVFeCxqjdgDNcFjOoGD5b9iq/uzCDd8EHMdD2O49yLGx8exuLgI80PZTIpDcKxP7ITH+vhaz1YJj/V0tz5tewKPvb29OH36tPVH8eDgAI888ggMTOa+zD5zzJSxy5m6uS/CY64jurYJj7ryMmoJIsxMnwO6FBMedeVl1FYLj5nEFuKzLyDadgrh5qsx0fkrDPS2IRQKYWVlxfqf4el0Wp8RihQTHhWF9Z5UwqO+zDyBRzOa6IRFA4Q2JNqWFIJFU67QKCXh0XZN5zvhUV9uhEdmps8BXYoJj7ryMmqrgcf0wRp2J59EpPkabLZ8FCNdr2Ogvxf2sxtNW3zV3wHCY/099roHwqPXjta/PdfwaKDw3LlzMMBgv8z6mTNnrJFIe18xeMyFTFPehsff/e53RzeUm/9bx0WHB9PT09ZlOcxLR14mJ3NJFfPSkxcz05WVyeu1117D2bNnrVEoftd05GfuS5yfny/ztzGF1N4cdkbux2bDh7DS+iUMdr2JoaEhq655DIe5TJWZ+5O5mYTIPDOTfvvjtxc+RyIRmO+JF22xDX9yN3k9+uij1i2G5m9kJa8POAuZ/2NgQLEcPJo6ZpTRCYu523a7Njw+++yzGB0dtdo27XPR4UFzczMMQDIvHXmZnBoaGpiXsr8xzEzP98t8x1566SU8/vjjaG1t5XdNyXdtYmIC7e3txfOansLMyFtYa/scNhuvwtR/TuPdt17B22+/jY6ODgwODhavq8QDbf+Om9+MXV1d9F3R+WW+J319fcxMUWYmr/vvv792eKx05NGAoT36aE+Y86c//ckatTT7nS8bHjlhjtMVPevmHxvzf3/40uMAL1vVk5WtlJnZTuh452WrOnJyqix52WomhUS4Bds9X8BG0w2Ya38AI31vW4/hMPc37u3tOZviuk8O8LJVn4z2sBtetuqhmT415cllq2Y00TnxTaF7Hgt9HnOfpPNeSbsM4dF2Quc74VFfbgQRZqbPAV2KCY+68jJqi8FjJrmDw/W3EW37KDaab8ZMx2MYHmi3rrgxl3PxMRzBZU14DM77WnsmPNbqXHD1XMOjke6ERXt00YZJc2lqoUlxDGDk3hdp20B4tJ3Q+U541Jcb4ZGZ6XNAl2LCo668jNpC8JhJxhCffxnR9lstcJzqeh4jgx2YnZ1FOBy26vAxHMFlTXgMzvtaeyY81upccPU8gUcj3wCifTmqczTRCY8GKO0y9qM9Cn10wp1XmwUAACAASURBVGMhV/TsIzzqycpWSni0ndDzzsz0ZGWUEh515WXU5sKjBY5zv0ak9cNYb7kVE50vYWR4wJoYJxqNIpFI6PuQx0wx4VFfoIRHfZl5Bo9efnTCo5du+t8W4dF/z932SBBx66D/9ZmZ/5676ZHw6Ma9YOo64TG1v4S96WcRbb3JmiBnpOtPGB0ZwsLCgjWzfCqVCkYke81ygPCYZYeKDcKjipiyRBIes+zghhcOEB69cNHfNggi/vrtRW/MzAsX/WuD8Oif1171ZMNj+mAVuxNPWM9wXG39LEa6/4rx8TEsLi7CwAoniPPKcfftEB7de+h3C4RHvx133x/h0b2HbCHHAcJjjiEKNgkiCkLKkcjMcgwRvkl4FB5QAXkGHuen+7E7+STCjZdhteUODHe9D46cUbWAaQHvIjwGHEAN3RMeazAt4CqEx4ADOI7dEx71pUoQYWb6HNClmPCoKy+jNhHfwGLXAwg3fAiLbXdjuPffMH8rzaM4zIyqfMlzgPAoL5NyigiP5RySd5zwKC8T9YoIj/oiJDwyM30O6FJMeNSVVzoRxd7UT7HZcDkWW7+Fkb5/Wc9wXF1dtZ5ZrevTnBy1hEd9WRMe9WVGeNSXmXjFhEfxEeUJJDzmWSJ+BzMTH1GWQMJjlh2iN9KHm9ibegobDZdhtvEujPS+ZY04rq2t8RmOopODdQ+qAXy+9DhAeNSTla2U8Gg7wXfPHCA8emalbw0RRHyz2rOOmJlnVvrSEOHRF5tdd2JNjmPucWz4EGYav4bmt18lOLp21b8GOPLon9de9UR49MpJ/9ohPPrn9YnpifCoL2qCCDPT54AuxYRH+XmZx3GYWVXN5DgLrd9CX/sFNDU1wYw4xuNxZDIZ+R/ihCskPOo7AQiP+jIjPOrLTLxiwqP4iPIEEh7zLBG/g5mJjyhLIOExyw5xG6n4InYnHkek6Wostn0HQz0XMTIygr6+Pl6qKi6t4oIIj8W9kXqE8Cg1meK6CI/FveGRGh0gPNZoXIDVCCIBml9j18ysRuMCqkZ4DMj4CrrNJGPYC/3Meo7jcusXLXAMhUKYn5+HeeeIYwUmCilCeBQSRBUyCI9VmCWkKOFRSBDHSQbhUV+aBBFmps8BXYoJjzLzyiR3EJ9/GZHWG7HacieGu/+OUGjKehxHLBbDwsKCTOFUVdABwmNBW0TvJDyKjqegOMJjQVu4040DhEc37gVTl/AYjO9uemVmbtzzvy7h0X/Py/WYScWxv/AKIs3XYrXlDox0/9UCx+XlZRweHlqP5FhcXCzXDI8LcoDwKCiMCqUQHis0SlAxwqOgMI6LFMKjviQJIsxMnwO6FBMeheWVSeJw/R2Em67GasvtGO1+HRMTE7DB0ag1AEl4FJZbGTmExzIGCTxMeBQYShlJhMcyBvFw9Q4QHqv3LOgahMegE6i+f2ZWvWdB1iA8Bul+Tt+ZJBLhFkTbP4a1po9isvOXGB8btsDx4ODgqDDh8cgKNSuERzVRHQklPB5ZoWaF8KgmKj1CCY96srKVEkRsJ/S8MzM9WRmlhEc5eSWjvYi234r1ppsx1fkLjI0OY2lpCXt7e1mT4xAe5WRWqRLCY6VOySlHeJSTRaVKCI+VOsVyFTtAeKzYKjEFCSJioqhYCDOr2CoRBQmPImJAcnsQ271fxUbT9Zju+AlGRwatS1MNdKTT6SyRhMcsO1RsEB5VxJQlkvCYZYeKDcKjiph0iSQ86srLqCWIMDN9DuhSTHgMPq/U3hy2++7CZsNlmO54HKNDndZsqjs7O3ngaNQSHoPPrFoFhMdqHQu+POEx+AyqVUB4rNYxli/rAOGxrEXiChAexUVSVhAzK2uRqAKEx2DjSO0vYWf0AYQbL8Nc6xkMD3RYz3Hc3t5GKpUqKI7wWNAW0TsJj6LjKSiO8FjQFtE7CY+i49EpjvCoLzeCCDPT54AuxYTH4PLKJKLYnTyLSNPVWGj5FgZ7GzA3N4doNFoUHI1awmNwmdXaM+GxVueCq0d4DM77WnsmPNbqHOsVdYDwWNQasQcIj2KjKSqMmRW1RuQBwmNAsaQTiM+/jEjrjVhp/SIGu9+G+TfK/PgpNuJoKyU82k7oeSc86snKVkp4tJ3Q80541JOVGqWERzVRHQkliBxZoWaFmamJyhJKeAwmr4OVC4i23Yz15lsw1PUmQqEQVldXy4KjUUt4DCYzN70SHt24F0xdwmMwvrvplfDoxj3WLegA4bGgLaJ3EkREx1NQHDMraIvYnYRHv6PJIBHtwlb3Z7HR9GGMdr6KiYlxrKysIJlMViSG8FiRTaIKER5FxVGRGMJjRTaJKkR4FBXH8RBDeNSXI0GEmelzQJdiwqOfeWWQ2g0hNvjf1iM5Qh1PY3y033qW4/7+fsVCCI8VWyWmIOFRTBQVCyE8VmyVmIKERzFRHB8hhEd9WRIemZk+B3QpJjz6l1f6cAO7k09io/FqzLbdj7GhlqNnOVajgvBYjVsyyhIeZeRQjQrCYzVuyShLeJSRw7FSQXjUFyfhkZnpc0CXYsKjP3llUnHE536LcNO1WGi9G2P9/7ZmVjWP5Ein01WJIDxWZZeIwoRHETFUJYLwWJVdIgoTHkXEcLxEEB715Ul4ZGb6HNClmPDoT14Hq/9EpPUmrLR8DuO9f7EmyIlEIhVNkJOrkPCY64j8bcKj/IxyFRIecx2Rv014lJ+ROoWER3WRgfDIzPQ5oEsx4bH+eSVjI9jqvA3rTTdjovtlTE6MYWNjA4lEoqbOCY812RZoJcJjoPbX1DnhsSbbAq1EeAzU/uPZOeFRX66ER2amzwFdigmP9c0rfbCG7d4vY7PhcoTaz2JsdMB6JIeZICeTydTUOeGxJtsCrUR4DNT+mjonPNZkW6CVCI+B2n88Oyc86suV8MjM9DmgSzHhsX55ZdIH2Bl7GOHGyzDXdi9GBrusmVUNSNQKjkYt4bF+mdWrZcJjvZytX7uEx/p5W6+WCY/1cvYEt0t41Bc+4ZGZ6XNAl2LCY/3y2p8/j0jL9Vhr/jj6+7owPz8P84PUDTgatYTH+mVWr5YJj/Vytn7tEh7r5229WiY81svZE9wu4VFf+IRHZqbPAV2KCY/1yCuDRLgVW52fwkbTdRjqetOaIMfc5+gWHI1awmM9Mqtvm4TH+vpbj9YJj/Vwtb5tEh7r6++JbJ3wqC92wiMz0+eALsWER6/zyiAVn0Ns8B7reY4THb/AxPiYdZ9jrRPk5CokPOY6In+b8Cg/o1yFhMdcR+RvEx7lZ6ROIeFRXWScbVVfZMxMWWaER28DSx+GsTf1U4Sbr8Ns2w8wOtSJ5eVlmAlyvHoRHr1y0r92CI/+ee1VT4RHr5z0rx3Co39en5ieCI/6oubIIzPT54AuxYRH7/LKpOLYX/ozom2nsNTyFYz1v23d5xiLxbzrhJeteuqlX40RHv1y2rt+CI/eeelXS4RHv5w+Qf0QHvWFTXhkZvoc0KWY8OhRXpkUEtEubHXdiZXm2zDR8xqmQ5OIRCJIp9MedXKpGY48emqnL40RHn2x2dNOCI+e2ulLY4RHX2w+WZ0QHvXlTXhkZvoc0KWY8OhNXun9FewM34f1xg8j1PFTTI4PYn19Hclk0psOHK0QHh1mKFklPCoJyiGT8OgwQ8kq4VFJUJpkEh41pXVJK+GRmelzQJdiwqMHeWWSiM++gHDzDZhrvRfjw63W8xzNfY5ezK6aq5DwmOuI/G3Co/yMchUSHnMdkb9NeJSfkTqFhEd1kXHyFX2RMTNlmREe3Qd2GG6xnue40vQpjPX/H2ZnZ2Duc6wHOBq1hEf3mfndAuHRb8fd90d4dO+h3y0QHv12/AT0R3jUFzJHHpmZPgd0KSY8ussrk9xFtO0mrDfegMmulzA5OWHd55hKpdw1XKI24bGEOUIPER6FBlNCFuGxhDlCDxEehQajWRbhUV96hEdmps8BXYoJjy7yyiSxM/JDhBsuw3zb9zAyMoK1tTUcHBy4aLR8VcJjeY+klSA8SkukvB7CY3mPpJUgPEpL5BjoITzqC5HwyMz0OaBLMeGxxrwyKewv/gHhpiuw0nw7hvtbsLi4CAMJ9X4RHuvtsPftEx6997TeLRIe6+2w9+0THr339MS3SHjUdwoQHpmZPgd0KSY81pZXMjaCra7bsdF4PUa6/4Lp6WlEo1HPH8tRSB3hsZArsvcRHmXnU0gd4bGQK7L3eQaPFy5cwKlTp6zl+eefL/qpzTG73COPPFLwspOLFy9aZc6fP+/L/10sKpYHanKA8FiTbYFWIjwGan9NnTOzmmwLrBLhsXrr04cb2Bl9AOGmqxFq+wnGx8etx3IkEonqG6uhBuGxBtMCrkJ4DDiAGronPNZgWsBVPIHH3t5enD59GuYEMPcgGCg0MJn7MvtsYCxVjvCY65yubcKjrryMWoIIM9PngC7FhMcq80ofYn/x94i23oSFlq9heKDDeixHPB6vsqHaixMea/cuqJqEx6Ccr71fwmPt3gVV0xN4NKOJTlg0MGlDovODmTLOcma90Cgl4dHpmr51wqO+zAiPzEyfA7oUEx6ryysZ7cV275ex2vwJjHb/GbMz09je3q7bYzkKqSM8FnJF9j7Co+x8CqkjPBZyRfY+1/BoRhDPnTsHAwz2y6yfOXPGGom095l3c4IYqLRHKHPr2WUJj7YTOt8Jj/pyIzwyM30O6FJMeKw8r/T+CnbHH8Nm8w2Y6ngGU5Mj1uWq6XS68kY8KEl49MBEn5sgPPpsuAfdER49MNHnJlzDowndgGKl8Ggub7XvebQvdc39zDY8PvvssxgdHbXaNu1z0eFBc3OzNakB89KRl8mpoaGB3y9lf2OYmZ7vl/mOvfTSS3j88cfR2trK71qJ79rszCSWh3+DcPMNGP7X1/Duxdctz8z/4PL735SJiQm0t7f73q/fn/M49Wd+M3Z1dTGzEt8xaXkPDg6ir6+PmSnKzOR1//33Wzw3Pz+fi3EFtz/g3FvNyKO5RNV5maq5bLXQ5a02PP7ud7/Dzs6ONaua+T+OXHR4YGbDSyaTzEvROWsmouD3S8f3y86JmenK67XXXsPZs2cRCoX4XSvxtzGxPYpo5x1YbfoExrr/gOnpkHW5aiqV8t23/f19mB9G9neO7/K/c+Y34/LyMjMr8R2Tdh5HIpGjKwukaaOewt/59fV1PProo+7g0QCguc/RfhW657GaEUobHjnbqu2ornfzf7XMF44vPQ7wslU9WdlKmZnthI53XrZaPqd0Iord8cex2XgFpjsex9TkGDY2NmDAMYgXL1sNwnV3ffKyVXf+BVGbl60G4bq7Pl1ftmq6d8KiPYuqDZPO0UbnuqlXbuSR8Ogu3KBqEx6Dcr72fgkitXsXVE1mFpTztfVLeCzjWyaNw7WLCDdfg4WWb2B8qNGaXdX8pgjqRXgMyvna+yU81u5dUDUJj0E5X3u/nsCj6d6AoX0vo3NGVScw2mBplyt0yappiyOPtQcqoSbhUUIK1WkgiFTnl4TSzExCCpVrIDyW9spMkrPV+WmsNX0Uk93nrfufYrFYoFexEB5LZybxKOFRYiqlNREeS/sj8ahn8OjlhyM8eumm/20RHv333G2PBBG3Dvpfn5n577mbHgmPJdzLJLE7dQ6bjVdhtv0hTIyPWJerJhKJEpXqf4jwWH+Pve6B8Oi1o/Vvj/BYf4+97oHw6LWjbM/6P8a851HXiUAQ0ZWXUcvMdGVGeCye1+HGfxBuugrLLZ/D2MB/rMtV4/F48Qo+HSE8+mS0h90QHj0006emCI8+Ge1hN4RHD81kU5cc4MijvjOBIMLM9DmgSzHhsXBeKXO5avfnsNlwBSa6fmc95ml7ezvQy1VtpYRH2wk974RHPVnZSgmPthN63gmPerJSo5TwqCaqI6GExyMr1KwwMzVRWUIJj4XzMperhhsvw3zrvRgfHbKm7DePepLwIjxKSKE6DYTH6vySUJrwKCGF6jQQHqvzi6UrcIDwWIFJwooQRIQFUoEcZlaBSYKKEB7zw0hsNiPafqs1Sc5gX7N1uere3l5+wYD2EB4DMt5Ft4RHF+YFVJXwGJDxLrolPLowj1ULO0B4LOyL5L0EEcnpFNbGzAr7InUv4TE7mUxiG7GBuxFu+CBGO35tXa5qHhYu6UV4lJRGZVoIj5X5JKkU4VFSGpVpITxW5hNLVeEA4bEKs4QUJYgICaIKGcysCrMEFCU8OkLIpLE/fx6Rlhuw0PpNjAz3Y2VlBVIuV7WVEh5tJ/S8Ex71ZGUrJTzaTuh5JzzqyUqNUsKjmqiOhBJEjqxQs8LM1ERlCSU82nllkIyNYLvvLqw3fQQjPf/A/Pw8zI9+aS/Co7REyushPJb3SFoJwqO0RMrrITyW94glqnSA8FilYQKKE0QEhFClBGZWpWEBFyc8Xgogk9jC3tRT2Gy6BqH2s5gcH7Ke6ZjJZAJOKL97wmO+J9L3EB6lJ5Svj/CY74n0PYRH6Qkp1Ed41BcaQYSZ6XNAl2LCI4BMEocb7yLa8QkstnwF44PvWpPkGEiT+CI8SkyltCbCY2l/JB4lPEpMpbQmwmNpf3i0BgcIjzWYFnAVwmPAAdTQPTOrwbQAqxAegfT+MnZG7sd640cw1fUCZqYnEYvFIHHU0ZwqhMcAvzA1dk14rNG4AKsRHgM0v8auCY81GsdqxR0gPBb3RuoRgojUZIrrYmbFvZF45KTDYyZ9gP3lNxBpudF6puPUaAfW1tbETZLjPHcIj043dKwTHnXk5FRJeHS6oWOd8KgjJ1UqCY+q4rLEEkSYmT4HdCk+6fCY2pvFVs/nsdL0SUz2/hFzc7OIx+NiRx3N2UV41PUdM2oJj/oyIzzqy4zwqC8z8YoJj+IjyhNIeMyzRPwOZiY+oiyBJxoeM0nEZ36JzabrMNPxKCYnRmCe6ZhKpbI8krZBeJSWSHk9hMfyHkkrQXiUlkh5PYTH8h6xRJUOEB6rNExAcYKIgBCqlMDMqjQs4OInGR5TezMIN16OlaZPYXzgojVJzsHBQcCJlO+e8FjeI2klCI/SEimvh/BY3iNpJQiP0hI5BnoIj/pCJIgwM30O6FJ8YuExk8Z2713YaLwW011PIxQKiZ4kx3lWER6dbuhYJzzqyMmpkvDodEPHOuFRR06qVBIeVcVliSU8MjN9DuhSfFLh8XDjHYQbPojl1i9hdKTfeqZjIpFQER7hUUVMWSIJj1l2qNggPKqIKUsk4THLDm544QDh0QsX/W2D8Oiv3170xsy8cNG/Nk4iPKYPNxHt+CQ2Gq/BRPf/w9zcnDWhiX+uu+uJ8OjOvyBqEx6DcN1dn4RHd/4FUZvwGITrx7xPwqO+gAkizEyfA7oUnzh4zKSwN/ML617HudbvYmxsDOFwWPwkOc6zivDodEPHOuFRR05OlYRHpxs61gmPOnJSpZLwqCouSyzhkZnpc0CX4pMGj8ntIWx13oa1ppsw3PeuNUnO/v6+qtAIj6rissQSHvVlRnjUlxnhUV9m4hUTHsVHlCeQ8JhnifgdzEx8RFkCTxI8ZlJx7I4/hkjTFZhof8aaJCcajYp+pmNWWO9tEB4LuSJ7H+FRdj6F1BEeC7kiex/hUXY+KtURHvXFRhBhZvoc0KX4JMHj4dpFRNtvxXLzHRgd6sDKygq0TJLjPKsIj043dKwTHnXk5FRJeHS6oWOd8KgjJ1UqCY+q4rLEEh6ZmT4HdCk+KfCYPtzAzsgPEW66GmOd5zE3N4udnR1dYb2nlvCoLzbCo77MCI/6MiM86stMvGLCo/iI8gQSHvMsEb+DmYmPKEvgSYHHg5W/I9L6ESy0fAsTI5dGHTOZTJYXWjYIj1qSel8n4fF9L7SsER61JPW+TsLj+15wzSMHCI8eGeljMwQRH832qCtm5pGRPjVzEuAxtTeL2NB3sdF4A8a6/4z5+XlomyTHeToQHp1u6FgnPOrIyamS8Oh0Q8c64VFHTqpUEh5VxWWJJYgwM30O6FJ83OExkz7A/tIfEW65AbNt9yM03oONjQ11k+Q4zyrCo9MNHeuERx05OVUSHp1u6FgnPOrISZVKwqOquCyxhEdmps8BXYqPNzxmkNqdwnbf17DS/ClM9v0FCwsLODg40BVSjlrCY44hCjYJjwpCypFIeMwxRMEm4VFBSNokEh61JQYQHpmZPgd0KT7O8JhJ7WN/4VVsNl2L2faHEJochHk0Rzqd1hVSjlrCY44hCjYJjwpCypFIeMwxRMEm4VFBSNokEh61JUZ41JcYM9OW2fGFx0ujjltdt2O5+TOYGvgHlpeXYcBL+4vwqC9BwqO+zAiP+jIjPOrLTLxiwqP4iPIEcuQxzxLxO5iZ+IiyBB5beMwkEJ95HhuN12C28ycITY1je3tb/aijCY/wmHUKq9ggPKqIKUsk4THLDhUbhEcVMekSSXjUlZdRSxBhZvoc0KX4uMJjMjaMSNtNWG75LCaH3sHa2tqxGHU0ZxfhUdd3zKglPOrLjPCoLzPCo77MxCsmPIqPKE8g4THPEvE7mJn4iLIEHld43Bm+DxuN12K662eYDk0hFoupnmHVGRrh0emGjnXCo46cnCoJj043dKwTHnXkpEol4VFVXJZYgggz0+eALsXHER6TsSGEGy+zZlgdHeqyHs2RTCZ1BVNCLeGxhDlCDxEehQZTQhbhsYQ5Qg8RHoUGo1kW4VFfeoRHZqbPAV2Kjx08ZlKIDX4Hmw1XINT1C8zNzWFnZ0dXKGXUEh7LGCTwMOFRYChlJBEeyxgk8DDhUWAo2iURHvUlSHhkZvoc0KX4uMHjweo/EGm6EkvNn8Pw8PCxG3U0ZxfhUdd3zKglPOrLjPCoLzPCo77MxCsmPIqPKE8g4THPEvE7mJn4iLIEHid4zCS2sd13FzYbr8BY9x+sUUfzo/24vQiP+hIlPOrLjPCoLzPCo77MxCsmPIqPKE8gQSTPEvE7mJn4iLIEHid43F9+A5GWG7HQ/FWMj4/D/JDIZDJZn/c4bBAe9aVIeNSXGeFRX2aER32ZiVdMeBQfUZ5AgkieJeJ3MDPxEWUJPC7wmIrPY3vgm9hovAGj3W9gYWEB+/v7WZ/1uGwQHvUlSXjUlxnhUV9mhEd9mYlXTHgUH1GeQIJIniXidzAz8RFlCTwW8JhJIj7/MiIt12Om9X5MjI8c21FHEx7hMesUVrFBeFQRU5ZIwmOWHSo2CI8qYtIlkvCoKy+jliDCzPQ5oEvxcYDH1M4kYv3fxFrTLRjr+wcWFxcswNKVROVqCY+VeyWlJOFRShKV6yA8Vu6VlJKERylJHCMdhEd9YRIemZk+B3QpVg+PmST2F15BpPlaTLc9hOmpYUSjUV0hVKmW8FilYQKKEx4FhFClBMJjlYYJKE54FBDCcZNAeNSXKOGRmelzQJdi7fBojToO3I3VplOY6P87FhcXkUwmdYVQpVrCY5WGCShOeBQQQpUSCI9VGiaguGfweOHCBZw6dcpann/++byPZk6O06dPH5Wxy5p95pjzdfHiRavc+fPnrWf2OI9xXb4DhEf5GeUqJDzmOiJ/m5nJz8ipUDU8phPYX/ozwk1XYbrtQcxMDVr/bh/HGVadmREenW7oWCc86sjJqZLw6HRDx7on8Njb22uBoTkBDg4O8Mgjj8DAZLmXgcxC5QiP5ZyTfZzwKDufQuoIIoVckb2PmcnOJ1edZnhM7c0gNvAtrDZ9DFP9f7ZGHROJRO5HPHbbhEd9kRIe9WVGeNSXmSfwmAuBBiYNQBqQLPYygHHu3LmCZQiPxVzTsZ/wqCMnp0qCiNMNHevMTEdOtkqt8JhJH+Jg5W/YbLoWs+0PYHpywBp1TKfT9kc7tu+ER33REh71ZUZ41JeZa3g0gGgg0ACD/TLrZ86cybsc1T5u3g1wGsgs9CI8FnJFzz7Co56sbKUEEdsJPe/MTE9WRqlOeMwgtTeH7d6vYqXp05ga+BuWl5eP9QyrzrOK8Oh0Q8c64VFHTk6VhEenGzrWXcOjCd2AYjXwaMoWG3U0ttnw+Ktf/cp6ALERyUWPB319fVhfX2dmis7brq4u5qUoL/P3kJnp+Zto8nr55ZfxxBNPoL+/X893bWMNW5MvYP0/V2Lk3fvQ1dlq/Vu/sbGh5zO4+F4bUB4cHDwRn/W4/MZaWFjA6OgoM3Nx3vt9LhgmMP8z1O9+2V/t/4aavH70ox9Z89PMz89XRLwfcJaqZeQx9zJXZ3tOeHzxxRet/8tpAJWLHg/MP7aRSISZKTpvzVUA/I7p+Y6ZrJiZrrzMBHAGHoeGhtR816JrE1hvvgXLjZ/EYOdfMDExAQOOJ+VvhfmfoAZETsrnPQ6f0wC/+WF7HD7LSfkMBvgNQJ6Uz3scPqfJ68EHH3QHj+b+RuclqGa92D2PpsNyl7TaI4+cbTUXq3Vsm4xPwv0wOtKoTCUvgazMJ0mlmJmkNMpr0XjZanz2V9hsvBJzHQ8hNDWBWCyG4z7DqjNJXrbqdEPHOi9b1ZGTU6WBKTMKyJceB0xejz32WO3waD6qExbt2VZtmDSjjGaxX2a/c9ve73wnPDrd0LdOeNSXGUGEmelzQJdibfCYPtxEpOU6rDXdgvGBd7C2tnZi7nW0zyzCo+2EnnfCo56sbKWER9sJPe+ewKP5uAYI7Wc3Oh+/kQuPZtt5vJBVhMdCrujZR3jUk5WtlPBoO6HnnZnpycoo1QaPe6GnsdlwGeY6HkQoNIXt7W1dhnuglvDogYk+N0F49NlwD7ojPHpgos9NeAaPXuomPHrppv9tER7999xtjwQRtw76X5+Z+e+5mx41wWN6fwWR5muw0XgtRvqbT+Soo8ma8OjmjA+mLuExGN/d9Ep4dONeMHUJj8H4fqx7JTzqi5cgwsz0OaBLsR54zMCMOoYbL8NM+yMIhULWRBa63PZGLeHRGx/9bIXw6Kfb3vRFePTGRz9bITz66fYJ6YvwqC9owiMz0+eALsVa8Vk4PwAAIABJREFU4DG9v4St7jux3ngjRvpbsbq6ikQioctsj9QSHj0y0sdmCI8+mu1RV4RHj4z0sRnCo49mn5SuCI/6kiY8MjN9DuhSrAIeMynE536DSPN1CLU/genp6RM76mjOLsKjru+YUUt41JcZ4VFfZoRHfZmJV0x4FB9RnkDCY54l4ncwM/ERZQnUAI+p3Wls930V600fwXBfA1ZWVpBMJrM+x0naIDzqS5vwqC8zwqO+zAiP+jITr5jwKD6iPIEEkTxLxO9gZuIjyhIoHh4zScTnX0ak5XpMtz2A0NT4iZxh1Rka4dHpho51wqOOnJwqCY9ON3SsEx515KRKJeFRVVyWWIIIM9PngC7F0uExtTOJWP83Lz3Xse9NLC0tIZVK6TLZY7WER48N9aE5wqMPJnvcBeHRY0N9aI7w6IPJJ60LwqO+xAmPzEyfA7oUi4bHTBL7C68g0nwtptsewszUMGKxmC6D66CW8FgHU+vcJOGxzgbXoXnCYx1MrXOThMc6G3wSmyc86kud8MjM9DmgS7FkeLRGHQfuxmrTKUz0/x2Li4tIp9O6DK6DWsJjHUytc5OExzobXIfmCY91MLXOTRIe62zwSWye8KgvdcIjM9PngC7FYuExk8TB8hsIN12F6bYHMTM1aM2wmslkdBlcB7WExzqYWucmCY91NrgOzRMe62BqnZskPNbZ4JPYPOFRX+qER2amzwFdiqXCY3p/BTsjP8Bq08cw1f9na9TxpD7XMfeMIjzmOiJ/m/AoP6NchYTHXEfkbxMe5WekTiHhUV1kIDwyM30O6FIsEh4zKRxuvItwy/WYa/s+picHrFFHXrJ66dwiPOr6jhm1hEd9mREe9WVGeNSXmXjFhEfxEeUJJDzmWSJ+BzMTH1GWQInwmD4MIzZ8BmuNN2G692Vr1NEAE1+XHCA86jsTCI/6MiM86suM8KgvM/GKCY/iI8oTSBDJs0T8DmYmPqIsgeLgMZPG4WYjws3XYaH125ga60I0GuVEOY7UCI8OM5SsEh6VBOWQSXh0mKFklfCoJChNMgmPmtK6pJUgwsz0OaBLsTR4zKQPEBv4tjXqGOr5jTXqeHBwoMvUOqslPNbZ4Do0T3isg6l1bpLwWGeD69A84bEOpp70JgmP+s4AwiMz0+eALsXS4DEZG0K46WostnwdE2O9iEQiHHXMOaUIjzmGKNgkPCoIKUci4THHEAWbhEcFIWmTSHjUlhg4YY6+yJiZssykwePO8H3YaLwe0z0vYmFhAfF4XJmj9ZdLeKy/x173QHj02tH6t0d4rL/HXvdAePTaUbYHwqO+k4Ajj8xMnwO6FEuCR2vUsfEyrDR/GuMjPRx1LHIqER6LGCN4N+FRcDhFpBEeixgjeDfhUXA4WqURHvUlR3hkZvoc0KVYDjxmEBv8DjYbLkeo6znMz89z1LHIqUR4LGKM4N2ER8HhFJFGeCxijODdhEfB4WiVRnjUlxzhkZnpc0CXYinwmNqdRqT5aqw2fxyjw70wPwL4XMfC5xLhsbAvkvcSHiWnU1gb4bGwL5L3Eh4lp6NUG+FRX3CER2amzwFdikXAYzqB3YnHEW68DKHOZzA3N4ednR1dRvqolvDoo9kedUV49MhIH5shPPpotkddER49MpLNvO8A4fF9L7SsER61JPW+Tmb2vhca1iTAY3J7ENH2W7HWdAqjgx3Y2NhAKpXSYF8gGgmPgdjuqlPCoyv7AqlMeAzEdledEh5d2cfKhRwgPBZyRfY+gojsfAqpY2aFXJG7L3B4zCSxN/UUIk1XYarjGczOzsL80OaruAOEx+LeSD1CeJSaTHFdhMfi3kg9QniUmoxiXYRHfeERRJiZPgd0KQ4aHpM7Y9ju+RLWmm7B2GArVldXea9jmVOI8FjGIIGHCY8CQykjifBYxiCBhwmPAkPRLonwqC9BwiMz0+eALsWBwmMmifjsC4g0X4tQ22OYmw0hFovpMjAAtYTHAEx32SXh0aWBAVQnPAZgussuCY8uDWT1fAcIj/meSN9DeJSeUL4+ZpbvieQ9QcJjam8WscF7sNp0K8YHLmJ5eZmjjhWcLITHCkwSVoTwKCyQCuQQHiswSVgRwqOwQI6DHMKjvhQJIsxMnwO6FAcJj/tLryPSch2m2x7CbGiEo44VnjqExwqNElSM8CgojAqlEB4rNEpQMcKjoDCOixTCo74kCY/MTJ8DuhQHBY+pvTnEhr6L9cYbMNn/NywtLXGG1QpPHcJjhUYJKkZ4FBRGhVIIjxUaJagY4VFQGMdFCuFRX5KER2amzwFdigOBx0waB2v/QqT1I5htvQ/TE73Y3t5GJpPRZV5AagmPARnvolvCowvzAqpKeAzIeBfdEh5dmMeqhR0gPBb2RfJewqPkdAprY2aFfZG6Nwh4TB+sY3f8UWvUMdT7/7CwsIBEIiHVInG6CI/iIikriPBY1iJxBQiP4iIpK4jwWNYiFqjWAcJjtY4FX54gEnwG1SpgZtU6Fmx53+Exk0Yi0olo2y1YaL0b0+NtiEajnCinitOA8FiFWUKKEh6FBFGFDMJjFWYJKUp4FBLEcZJBeNSXJkGEmelzQJdiv+Exk9zBXuhZrDfeiOnu57EwP4uDgwNdpgWslvAYcAA1dE94rMG0gKsQHgMOoIbuCY81mMYqpR0gPJb2R+JRwqPEVEprYmal/ZF21F94zCAZG0W07RSWWr6E0GgjwuEwJ8qp8qQgPFZpmIDihEcBIVQpgfBYpWECihMeBYRw3CQQHvUlShBhZvoc0KXYV3jMJBGf/TU2Gq/DbNc5zM6GsLe3x4lyqjxlCI9VGiagOOFRQAhVSiA8VmmYgOKERwEhHDcJhEd9iRIemZk+B3Qp9hMe04dhRNtvxUrzpzE5/C7MP/TJZFKXYQLUEh4FhFClBMJjlYYJKE54FBBClRIIj1UaxuLlHSA8lvdIWgnCo7REyuthZuU9klTCT3jcX3gNm41XYr7jR5ieDmFnZ0eSFWq0EB7VRHUklPB4ZIWaFcKjmqiOhBIej6zgilcOEB69ctK/dggi/nntVU/MzCsn/WnHN3jMJK1Rx7XGmzHRfwHr6+t8PEeNERMeazQuwGqExwDNr7FrwmONxgVYjfAYoPnHtWvCo75kCSLMTJ8DuhT7BY/7y28g3PAhLLbejVAohO3tbV1GCVJLeBQURoVSCI8VGiWoGOFRUBgVSiE8VmgUi1XuAOGxcq+klCQ8Skmich3MrHKvJJT0Ax4zqV1s996FjcarMd73V6yursIAEF+1OUB4rM23IGsRHoN0v7a+CY+1+RZkLcJjkO4f074Jj/qCJYgwM30O6FLsBzwerl9EpOlK6/EcExMTMD/KMpmMLqMEqSU8CgqjQimExwqNElSM8CgojAqlEB4rNIrFKneA8Fi5V1JKEh6lJFG5DmZWuVcSStYbHjOpOGKD/4Nw44cw3v17LC0t4eDgQMJHV6uB8KgvOsKjvswIj/oyIzzqy0y8YsKj+IjyBBJE8iwRv4OZiY8oS2C94TGx2Yho281Yaf4MxseGEQ6HOeqYlUD1G4TH6j0LugbhMegEqu+f8Fi9Z0HXIDwGncAx7J/wqC9Ugggz0+eALsV1hcd0ArvjjyLcdAXGOl/GwsIC9vf3dRkkUC3hUWAoZSQRHssYJPAw4VFgKGUkeQaPFy5cwKlTp6zl+eefL9qtuYzmkUceOSpr6uW+Ll68aB0/f/48zB8CvnQ5QHjUlZdRS3hkZvoc0KW4nvCYiHZjq+sOrDR9AuMjPdbjOXivo/vzg/Do3kO/WyA8+u24+/4Ij+499LsFT+Cxt7cXp0+ftm7Ot+GwEBTax0z5Ui/CYyl35B8jPMrPKFch4THXEfnbzEx+Rk6F9YTHvZlfIdJ8NSbaf4a52Wns7e05u+Z6jQ4QHms0LsBqhMcAza+xa8JjjcYFWM0TeDQjjU5YNHBoRhdzb9Y3+0uNSto+EB5tJ3S+Ex715UYQYWb6HNCluF7wmNwZx3bf17HW+GFMDP7HejyHLmfkqiU8ys2mmDLCYzFn5O4nPMrNppgy1/BoAPHcuXMwwGC/zPqZM2eskUh7n3k34PinP/0Jd955p3VZqj1a6Sxj1m14/O1vf4tIJGI9p8r8EeeiwwMzRby534Z56cjL5DQyMsK8lP2NYWZ6vl/mO/bqq6/iySefhPn76NnfxoM4dudeRaT5ekw0PYjJsX5rohzP2lf2nfD6c8diMUxPT3uX1wn30+t8CrVnfjPOz88zM0Xn2vr6OpaXl5mZosxMXvYtiOb7VsnrA85C5v8YGFAsB4/2JavOEUkDk4VGIm14fO6556x7sRYXF8FFjwft7e3WH29mpiez5uZmfseU/Z1hZnq+X+Zv4W9+8xv85Cc/QUdHh3fftVAnVjvvtkYdO/7zMrq7u/m318PvsQHHrq4u7/LyUBv/fS38/TdX0fT19TEzRefa6OgoBgcHmZmizExeP/jBD6yBwJrgsdKRRxsenfc7FhuhtOGRE+Y4MV3Pusk1nU7rEUylnDBH4TnAS411heb5ZauZFA7X/209nmOu9QxmJnuxvb3Nx3N4eFqYkS0DaXzpcYCXrerJylbKy1ZtJ/S8e3LZqhlNdEJhsXsezSijsxzhUc+JUo1SwmM1bskoSxCRkUM1KphZNW4FX9ZreEwfhrE78QTWG29AqPdlLC7OI5FIBP9Bj5ECwqO+MAmP+jIjPOrLzDU8mo/shMXcEUbnpammnPM+R+cxp3UceXS6oW+d8KgvM4IIM9PngC7F3sJjBsmtPkQ7Po7Flm9geqzFmh+AV3x4e04QHr3104/WCI9+uOxtH4RHb/30ozVP4NEINSBoP+fROfNqLiCaY3Y55/2Pzg9LeHS6oW+d8KgvM8IjM9PngC7FXsJjJrWL+MwL2Gi6HrPdz2B+btqapEyXI/LVEh7lZ5SrkPCY64j8bcKj/IxyFXoGj7kNu9kmPLpxL/i6hMfgM6hWAeGxWseCL8/Mgs+gGgVewmN6fwnRztuw1PxZhIYvwvxDnkqlqpHDshU4QHiswCRhRQiPwgKpQA7hsQKThBUhPAoL5DjIITzqS5Egwsz0OaBLsWfwmElhf/kNbDZegfmOBzEzE0I8HtdlhhK1hEclQTlkEh4dZihZJTwqCcohk/DoMIOr3jhAePTGRz9bITz66bY3fTEzb3z0qxWv4DGT2sN2zxex2vQxhAb+grW1NU6UU6cQCY91MraOzRIe62hunZomPNbJ2Do2S3iso7kntWnCo77kCSLMTJ8DuhR7BY+JcDM2Gy7DYtu3EZochXmQfSaT0WWGErWERyVBOWQSHh1mKFklPCoJyiGT8Ogwg6veOEB49MZHP1shPPrptjd9MTNvfPSrFU/gMZNCbOBb7z2e4/9heXkZBnD4qo8DhMf6+FrPVgmP9XS3Pm0THuvjaz1bJTzW090T2jbhUV/wBBFmps8BXYq9gMfk9jDCDR/EcssXMDnWD/Oji6OO9TsPCI/187ZeLRMe6+Vs/dolPNbP23q1THisl7MnuF3Co77wCY/MTJ8DuhR7AY87w9/HZsPlCHX/AouLi5wop86nAOGxzgbXoXnCYx1MrXOThMc6G1yH5gmPdTD1pDdJeNR3BhAemZk+B3QpdguPyZ0JRFqux2rTrRgf6bQez5FOp3WZoEwt4VFZYAAIj/oyIzzqy4zwqC8z8YoJj+IjyhNIeMyzRPwOZiY+oiyBbuFxd+ophBsvQ6j9CczPz2Nvby+rfW547wDh0XtP690i4bHeDnvfPuHRe0/r3SLhsd4On8D2CY/6QieIMDN9DuhS7AYeU/F5bHXdjo3GqzA80In19XVw1LH++RMe6++x1z0QHr12tP7tER7r77HXPRAevXaU7YHwqO8kIDwyM30O6FLsBh73F/+ASMsNmGn9Iaanp63Hc+j69DrVEh715UZ41JcZ4VFfZoRHfZmJV0x4FB9RnkDCY54l4ncwM/ERZQmsFR4zhxFs930d4YYPYaTn/7CyssJRxyxn67dBeKyft/VqmfBYL2fr1y7hsX7e1qtlwmO9nD3B7RIe9YVPEGFm+hzQpbhWeDxcu4ho+62Yb70Hoakx6/Ecuj65XrWER33ZER71ZUZ41JcZ4VFfZuIVEx7FR5QnkPCYZ4n4HcxMfERZAmuBx0xqD7vjj2Gz8RpMdJ/H4uICEolEVrvcqJ8DhMf6eVuvlgmP9XK2fu0SHuvnbb1aJjzWy9kT3C7hUV/4BBFmps8BXYprgcdEpBNb3Z/FYvOXERq79HgOXZ9at1rCo778CI/6MiM86suM8KgvM/GKCY/iI8oTSHjMs0T8DmYmPqIsgdXCYyYVx97Mr7DZdD1CXc9hfi6Eg4ODrDa5UV8HCI/19bcerRMe6+FqfdskPNbX33q0Tnish6snvE3Co74TgCDCzPQ5oEtxtfCY3BnDdv83sNx0O0LDb2NjY4MT5fgcOeHRZ8M96I7w6IGJPjdBePTZcA+6Izx6YCKbyHaA8Jjth4YtwqOGlLI1MrNsP6RvVQWP6QQOlt9ApPlqzLQ/ipnQKOLxuPSPeOz0ER71RUp41JcZ4VFfZoRHfZmJV0x4FB9RnkCCSJ4l4ncwM/ERZQmsBh7T+0vYGT6D1aZbMT3wOlZXV5FKpbLa40b9HSA81t9jr3sgPHrtaP3bIzzW32OveyA8eu0o2wPhUd9JQBBhZvoc0KW4YnjMpJEItyDSfC3mWu/F9GQfYrEYMpmMrg98DNQSHvWFSHjUlxnhUV9mhEd9mYlXTHgUH1GeQMJjniXidzAz8RFlCawUHjPJGPamfor1xg9juvclLC4uwkAMX/47QHj033O3PRIe3Trof33Co/+eu+2R8OjWQdbPc4DwmGeJ+B0EEfER5QlkZnmWiN5RKTymdqcQaf0wllq+jOnRRkSjUU6UE1CyhMeAjHfRLeHRhXkBVSU8BmS8i24Jjy7MY9XCDhAeC/sieS9BRHI6hbUxs8K+SN1bETxmkojP/w4bjddgtut/MTc3h/39fakf6djrIjzqi5jwqC8zwqO+zAiP+jITr5jwKD6iPIEEkTxLxO9gZuIjyhJYCTymDyPY6rodq023YWroLZh/oJPJZFY73PDPAcKjf1571RPh0Ssn/WuH8Oif1171RHj0ykm2c+QA4fHICjUrBBE1UR0JZWZHVqhYqQQeD1b/gc2Gy7HQfh+mpydhfghzopzg4iU8Bud9rT0THmt1Lrh6hMfgvK+1Z8Jjrc6xXlEHCI9FrRF7gCAiNpqiwphZUWtEHigHj5n0AbZ7vmhNlDPV/2esra0hkUiI/CwnRRThUV/ShEd9mREe9WVGeNSXmXjFhEfxEeUJJIjkWSJ+BzMTH1GWwHLwmIh0Itx4BZZav46piWGYH1Qcdcyy0PcNwqPvlrvukPDo2kLfGyA8+m656w4Jj64tZAO5DhAecx2Rv00QkZ9RrkJmluuI7O1y8Bgb+p51yepU1wtYXl7GwcGB7A90AtQRHvWFTHjUlxnhUV9mhEd9mYlXTHgUH1GeQIJIniXidzAz8RFlCSwFj8mdcUSar8Vq08cwNjqMcDicVZcbwThAeAzGdze9Eh7duBdMXcJjML676ZXw6MY91i3oAOGxoC2idxJERMdTUBwzK2iL2J3F4TGD+PRzCDdejumO/8XCwgLi8bjYz3GShBEe9aVNeNSXGeFRX2aER32ZiVdMeBQfUZ5AgkieJeJ3MDPxEWUJLAaP6fgSoh2fxEbj1RgZaMb6+jrS6XRWXW4E4wDhMRjf3fRKeHTjXjB1CY/B+O6mV8KjG/dYt6ADhMeCtojeSRARHU9BccysoC1idxaDx/2F1xBpuR4zbT+E+dtpfvzyJcMBwqOMHKpRQXisxi0ZZQmPMnKoRgXhsRq3WLYiBwiPFdkkqhBBRFQcFYlhZhXZJKZQIXhMJyKIDdyNjcZrMdb3D6ysrCCZTIrRfNKFEB71nQGER32ZER71ZUZ41JeZeMWER/ER5QkkiORZIn4HMxMfUZbAQvB4sPYWou0fxXzLaYSmxhCNRrPqcCNYBwiPwfpfS++Ex1pcC7YO4TFY/2vpnfBYi2usU9IBwmNJe0QeJIiIjKWkKGZW0h5xB3PhMZ3Ywu74Y9hsugoTPa9hcXEBiURCnO6TLIjwqC99wqO+zAiP+jIjPOrLTLxiwqP4iPIEEkTyLBG/g5mJjyhLYC48JqLd2Or+PJaav4TQWIf1eI5MJpNVhxvBOkB4DNb/WnonPNbiWrB1CI/B+l9L74THWlxjnZIOEB5L2iPyIEFEZCwlRTGzkvaIO+iEx0xqH/GZXyLcdAWmOp7B3OwUDKjwJcsBwqOsPCpRQ3isxCVZZQiPsvKoRA3hsRKXWKYqBwiPVdklojBBREQMVYlgZlXZFXhhJzymdiYRG/gWVpo/g9Dwv7G+tgaOOgYeUZ4AwmOeJeJ3EB7FR5QnkPCYZ4n4HYRH8RHpE0h41JcZQYSZ6XNAl+L34TGEg7V/vfd4jgcxOz2Mvb09XR/mhKglPOoLmvCoLzPCo77MCI/6MhOvmPAoPqI8gYTHPEvE72Bm4iPKEmjD49RoK3ZGH8B6442Y7nsVS0tLfDxHllNyNgiPcrKoVAnhsVKn5JQjPMrJolIlhMdKnWK5ih0gPFZslZiCBBExUVQshJlVbJWIgpfg8UlM9r2OaPutmG+9BzMTnYjFYrxkVURC+SIIj/meSN9DeJSeUL4+wmO+J9L3EB6lJ6RQH+FRX2gEEWamzwFdig08/u+TD2O2/SFsNF6H2Z6fY2FhDgcHB7o+yAlSS3jUFzbhUV9mhEd9mREe9WUmXjHhUXxEeQIJj3mWiN/BzMRHlCXw979/Dc88eS/Wmk5hueULmB55F5FIBKlUKqscN+Q4QHiUk0WlSgiPlTolpxzhUU4WlSrxDB4vXLiAU6dOWcvzzz9fsH9zgpw+ffqonCnf29ubV/bixYtWmfPnz8P8IeBLlwOER115GbUEEWamzwFdiv/4h1fxxgufx0bjVZjrfAyzM1OIx+O6PsQJU0t41Bc44VFfZoRHfZl5Ao8GAA0UmhPAXILzyCOPwMBk7stAxZkzZ6xyucec24RHpxv61gmP+jIjPDIzfQ7oUvz6H1/B2D+ux0rTJzA1eAHr6+ucKEd4hIRH4QEVkEd4LGCK8F2ER+EBFZDnCTyakUYnLBqYNACZey+HgYpz587l7c/VRXjMdUTXNuFRV15GLeGRmelzQJfid/72E6y/exnmm08jNDXGiXIUxEd4VBBSjkTCY44hCjYJjwpCypHoGh4NIBogNMBgv8x6oRFGA5X2pa3m3Qmcdl3zbsPjM888g8HBQeuHrflxy0WHBw0NDRgfH2deis7Zt99+m3kpysv8LWRmOv4e2v9ujf/fJ7D09tV45y8Po7W1FSMjI/zOCf/OmYyam5uZk/Cc7O+YeTe/Gdvb25mZoswMG3R1dTEzRZmZvL7//e9bTDc/P+9EuKLrH3AeMf/HwIBiJfCYW89c6mpOmtyXDY+85zHXGR3bHHnUkZNTpflHly9dDjAzPXml4wvYbPgvTL51Cg3vvmXdupHJZPR8gBOqlCOP+oLnyKO+zDjyqC8zX0cec+0xI4+FJtchPOY6pWub8KgrL6OWIMLM9DmgRHEmjd2xh7D+7gfxlxc/Z406cqIcHdkRHnXk5FRJeHS6oWOd8KgjJ6dKT+DR3N/oHEE064XueXR2bNYJj7mOHI9twqO+HAmPzEyfAzoUp+OLiLbdhNm3rsKPfvAd69/KdDqtQ/wJV0l41HcCEB71ZUZ41JeZa3g0H9kJi/ZsqzZMmpFFe3RxdXX1yCEDGHfeeWcWdNoHOfJoO6HznfCoLzfCIzPT54AOxfHZFxFuvBzvvHqHdY/I8PCwDuFUCcKjvpOA8KgvM8Kjvsw8gUfzsQ0g2pPhOCfCccKjAUq7jHm3ATPXNsJjriO6tgmPuvIyagmPzEyfA/IVpw/WsNXzBWw0XoNf/uwBPPjgg5iampIvnAotBwiP+k4EwqO+zAiP+jLzDB69/OiERy/d9L8twqP/nrvtkfDo1kH/6zMz/z2vtseDlb8j0vphzLfcg6effhqPPvoopqenq22G5QNygPAYkPEuuiU8ujAvoKqEx4CMd9Et4dGFeaxa2AHCY2FfJO8liEhOp7A2ZlbYFyl7M8ld7Azfh83GqzHa8zc899xzeOKJJwiPUgKqQAfhsQKThBUhPAoLpAI5hMcKTBJWhPAoLJDjIIfwqC9Fgggz0+eAbMWJcAu2Om/DUssXMTk+iBdffBFnz54lPMqOLUsd4THLDhUbhEcVMWWJJDxm2aFig/CoIiZdIgmPuvIyagmPzEyfA4IVpw+xN3XOmihnovNFLC7Mwzy3mPAoOLMC0giPBUwRvovwKDygAvIIjwVMEb6L8Cg8II3yCI/6UiM8MjN9DshVnNwZw3bf17DSdBsmR1qwvr6O3//+94RHuZEVVEZ4LGiL6J2ER9HxFBRHeCxoi+idhEfR8egUR3jUlxvhkZnpc0Co4kwK8YXzCDdfi+n2xzA3M4Z4PE54FBpXKVmEx1LuyDxGeJSZSylVhMdS7sg8RniUmYtqVYRHffERHpmZPgdkKk7FF6yJctYab8HU4JtYWVlBJpMhPMqMq6QqwmNJe0QeJDyKjKWkKMJjSXtEHiQ8ioxFtyjCo778CI/MTJ8DAhVnUjhc/zeibTdjrvUMZiZ7EYvFLKG8bFVgXmUkER7LGCTwMOFRYChlJBEeyxgk8DDhUWAo2iURHvUlSHhkZvockKc4fRjG7sQTWG+8AaHel7G0uIBEImEJJTzKy6ucIsJjOYfkHSc8ysuknCLCYzmH5B0nPMrLRL0iwqO+CAmPzEyfA/IUJ2PDiHZ8HIst38D0WAui0SjS6bQllPAoL69yigiP5RySd5zwKC+TcooIj+Ucknec8CgvE/WKCI/6IiQ8MjN9Dsi/QWqkAAAgAElEQVRSnEnFEZ8/j43GazDbdQ7zc9PY398/Ekl4PLJCzQrhUU1UR0IJj0dWqFkhPKqJ6kgo4fHICq545QDh0Ssn/WuH8Oif1171xMy8ctKbdtL7K9jq/jyWm27H9NCbMP+4plKpo8YJj0dWqFkhPKqJ6kgo4fHICjUrhEc1UR0JJTweWcEVrxwgPHrlpH/tEET889qrnpiZV0560E4mjYO1/0O48XIsdNyP6ekp7O3tZTVMeMyyQ8UG4VFFTFkiCY9ZdqjYIDyqiClLJOExyw5ueOEA4dELF/1tgyDir99e9MbMvHDRmzYyqX3sDN2LtaaPYrr/D1hdXYUBD+eL8Oh0Q8c64VFHTk6VhEenGzrWCY86cnKqJDw63eC6Jw4QHj2x0ddGCCK+2u1JZ8zMExs9aSS5NYBww4ew1HoXpsb7sb29bT3b0dk44dHpho51wqOOnJwqCY9ON3SsEx515ORUSXh0usF1TxwgPHpio6+NEER8tduTzpiZJzZ60sjO2EPYaLwOMz0vYGlpCQcHB3ntEh7zLBG/g/AoPqI8gYTHPEvE7yA8io8oTyDhMc8S7nDrAOHRrYP+1yeI+O+52x6ZmVsHvamf2l9EuOkqrDR/GpMjbYhEIkeP53D2QHh0uqFjnfCoIyenSsKj0w0d64RHHTk5VRIenW5w3RMHCI+e2OhrIwQRX+32pDNm5omNrhvZm3oGmw2XYabjcczPz+dNlGN3QHi0ndDzTnjUk5WtlPBoO6HnnfCoJytbKeHRdoLvnjlAePTMSt8aIoj4ZrVnHTEzz6ysuaHU/gqi7bdal6yODTZiY2Mj6/EczoYJj043dKwTHnXk5FRJeHS6oWOd8KgjJ6dKwqPTDa574gDh0RMbfW2EIOKr3Z50xsw8sdFVI/tLf0S46QrMtZ3B9PQ0YrFY0fYIj0WtEXuA8Cg2mqLCCI9FrRF7gPAoNpqiwgiPRa3hgVodIDzW6lxw9QgiwXlfa8/MrFbnvKmXSWxju+dLCDd8ECM9b1qP50gmk0UbJzwWtUbsAcKj2GiKCiM8FrVG7AHCo9hoigojPBa1hgdqdYDwWKtzwdUjiATnfa09M7NanfOm3uH6RURbb8JCy2lMTU7A/AAq9SI8lnJH5jHCo8xcSqkiPJZyR+YxwqPMXEqpIjyWcofHanKA8FiTbYFWIogEan9NnTOzmmzzplImjZ3h+xBuvAyjXa9Yj+cwoFHqRXgs5Y7MY4RHmbmUUkV4LOWOzGOER5m5lFJFeCzlDo/V5ADhsSbbAq1EEAnU/po6Z2Y12eZJpUSkE1udn8Zy0+0YHx2wJsop1zDhsZxD8o4THuVlUk4R4bGcQ/KOEx7lZVJOEeGxnEM8XrUDhMeqLQu8AkEk8AiqFsDMqrbMkwqZ9AH2Qj9DuOkaTHb8HAvzszg4OCjbNuGxrEXiChAexUVSVhDhsaxF4goQHsVFUlYQ4bGsRSxQrQOEx2odC748QST4DKpVwMyqdcyb8smdcWz3fR2rTR/HxFAj1tbWkMlkyjZOeCxrkbgChEdxkZQVRHgsa5G4AoRHcZGUFUR4LGsRC1TrAOGxWseCL08QCT6DahUws2od86B8OoH9xT8g0nIjZtofxez0KPb29ipqmPBYkU2iChEeRcVRkRjCY0U2iSpEeBQVR0ViCI8V2cRC1ThAeKzGLRllCSIycqhGBTOrxi1vyqbji9gZvh9rTacQGvgLVlaWkU6nK2qc8FiRTaIKER5FxVGRGMJjRTaJKkR4FBVHRWIIjxXZxELVOEB4rMYtGWUJIjJyqEYFM6vGLW/KHm42INp2M+Za78XMZA9isVhFl6ya3gmP3mTgZyuERz/d9qYvwqM3PvrZCuHRT7e96Yvw6I2PbMXhAOHRYYaSVYKIkqAcMpmZwwwfVtOJCHannsJ600cQ6n0ZCwtzSCQSFfdMeKzYqv/f3nm4PVLW698/7SeIS0dlaSJNRD0IrKJHkVUQkRXlIHs8WM7qUVhcinR0pS2g+yZv73l77z3J20va/bueWedlNnWSPDPzfZI71zVXkinP883nnpRPpomZkfIoJgrXhVAeXaMSMyPlUUwUrguhPLpGxRndEqA8uiUlZz6KiJws3FbCzNyS0jNfcqPX2uo4G/4WJoZCiMfjrndZVRVQHvXk4GcrlEc/aevpi/Koh6OfrVAe/aStpy/Kox6ObMVBgPLogGHIQ4qIIUE5ymRmDhgeP8ykdrE78xesNlyOyfbfYHp6Gnt7e2X1SnksC5eImSmPImIoqwjKY1m4RMxMeRQRQ1lFUB7LwsWZ3RCgPLqhJGseioisPNxUw8zcUNIzjzpRzkbH3VgI34mJ/vehvjhTqVRZjVMey8IlYmbKo4gYyiqC8lgWLhEzUx5FxFBWEZTHsnBxZjcEKI9uKMmahyIiKw831TAzN5Q0zJNJYX/pPayd/xxmWn6CifER6/Icbq7t6Oyd8uikYcZjyqMZOTmrpDw6aZjxmPJoRk7OKimPThp8rIUA5VELRl8boYj4iltLZ8xMC8aSjWSSW9joeQDLoRsx0fs6lpeXyzpRjt0B5dEmYc495dGcrOxKKY82CXPuKY/mZGVXSnm0SfBeGwHKozaUvjVEEfENtbaOmJk2lEUbSsQ7EA1djrnmBzE+GsHGxobry3M4G6Y8OmmY8ZjyaEZOziopj04aZjymPJqRk7NKyqOTBh9rIUB51ILR10YoIr7i1tIZM9OCsWQjm/0PY6Xhaox3Po+FhQXs7++XXCbfDJTHfFRkj6M8ys4nX3WUx3xUZI+jPMrOJ191lMd8VDiuKgKUx6rwBbIwRSQQ7FV1ysyqwudq4eTmAKKhI1gM34XRoW7EYrGKtjqqziiPrpCLmonyKCoOV8VQHl1hEjUT5VFUHK6KoTy6wsSZyiFAeSyHlox5KSIyciinCmZWDq3K5t0eesI6Uc5E+7OYnZ3F7u5uZQ1RHivmFuSClMcg6VfWN+WxMm5BLkV5DJJ+ZX1THivjxqWKEKA8FoEjdBJFRGgwRcpiZkXgaJiUPlhDrPFqrISuxWBfG1ZXV5FOpytumVseK0YX2IKUx8DQV9wx5bFidIEtSHkMDH3FHVMeK0bHBQsRoDwWIiN3PEVEbjaFKmNmhcjoGb878XtEGz6H6ZZHMDU1BfWjtJob5bEaesEsS3kMhns1vVIeq6EXzLKUx2C4V9Mr5bEaelw2LwHKY14sokdSRETHk7c4ZpYXi5aRaqvjettXsNZwBAM9IaysrCCVSlXVNuWxKnyBLEx5DAR7VZ1SHqvCF8jClMdAsFfVqTZ5PHv2LI4ePWoNp06dKlmUmv/YsWNQK0327dy5c1Y7Z86cqfrf3uy2+dx7ApRH7xnr7oEiopuo9+0xM+8Y782+Yu2yOt30MMbHx63Lc1TbG+WxWoL+L0959J95tT1SHqsl6P/ylEf/mVfboxZ57OrqOhRBdRrzEydOQMlhoZtaUZQ4Uh4LETJ7POXRvPwoIszMPALeVJxOxLDZ+yBWG67EYNdZLC4uIplMVt0Z5bFqhL43QHn0HXnVHVIeq0boewOUR9+RV92hFnlUWxqdsqhkUglkoethqflff/11HD9+nFseq45QXgOUR3mZlKqI8liKkLzpzMybTPaXP0C85QbMNB7D2Ogg4vG4lo4oj1ow+toI5dFX3Fo6ozxqwehrI5RHX3Fr6axqeVSCePLkSShhsG/qcSExtMVyaGio4Dz2bqtKMlVbS0tLHAxi0N7ebl1Mm7mZs962tLTwPWbQe0y9t5iZ/vfX8sIYor2PYeX8lWj56H/R1dVpXaJDx2fZ6dOn8dRTT6Gjo4PvNUPeazMzM+ju7mZehuSl3qfqN2NfXx8zMygz9Ufo4OAgMzMoM5XXY489Zh1iqD4n3dw+45xJ/WOgRNGNPDql0vnY2Z56bMvjc889Z50eXf2TxMEcBmql2traYmYGrbeRSIR5GZSX+jxkZvo/EzfmPkG05TbMhb+J/p6QJY66vntefPFFPP3009aPJF1tsh3964CTaSwWg/ph6xzHx94yr5avuqSO+n1ZbTtc3r+cFxYWtH7WMjvvs1PXPX7iiScql0e3Wx7tYyHVlkd1cyOPPGFOtlab8VxlW8310Mx4lbVVJXeBNC9PZqY3s0xqD7uTp6zLc4y2ncL01DjUbou6btxtVRdJ/9rhbqv+sdbVkxIHtQWSN3MIcLdVc7KyK9Wy26o6vtGWQtWwvWuq85hHNc4+G2v2vXNZtby95ZHyaMdk1j3l0ay8VLUUEWZmHgG9FSc3erHR+XUshu/A+MDH1l4vmUxGWyeUR20ofWuI8ugbam0dUR61ofStIcqjb6i1dVS1PKpKnLKYvYVRHbeohuwbtzxmE6md55RH87KkPDIz8whorDidwN78m4iGjmC85VeYmhzFzs6Oxg4AyqNWnL40Rnn0BbPWTiiPWnH60hjl0RfMWjvRIo+qIiWI9hZF55lXKY9a8zKiMcqjETFdVCTl8SIcRjxhZvpiSu1MY7P3u1gK3YSJyNvWbm+pVEpfB6A8aoXpU2OUR59Aa+yG8qgRpk9NUR59Aq2xG23yqLEm7raqE2YAbVEeA4BeZZcUkSoBBrA4M9MEPZPCweo/EW28GtPNP8bkWMQ64ZfOXVZVpdzyqCkvH5uhPPoIW1NXlEdNIH1shvLoI2xNXVEeNYFkM58SoDx+ysKURxQRU5L6tE5m9imLah6lD6LYGngUyw1fxGT3X6zLDCUSiWqazLss5TEvFtEjKY+i48lbHOUxLxbRIymPouPJWxzlMS8WjqyGAOWxGnrBLEsRCYZ7Nb0ys2ro2ctmkIh3ItZ4LWabvo3x4Q5sbGx4crZoyqPN3Jx7yqM5WdmVUh5tEubcUx7NycqulPJok+C9NgKUR20ofWuIIuIbam0dMbPqUWbSB9ge/jlWGq7BVOf/Wtca29vbq77hPC1QHvNAET6K8ig8oDzlUR7zQBE+ivIoPKA85VEe80DhqOoIUB6r4xfE0hSRIKhX1yczq46fWjq9O49Y49WYb7wHowNNUBeF9+oatZTH6vPyuwXKo9/Eq++P8lg9Q79boDz6Tbz6/iiP1TNkC1kEKI9ZQAx4ShExIKSsEplZFpAKnu6M/xqrDZdjuv0pzExPY3d3t4JW3C1CeXTHSdJclEdJabirhfLojpOkuSiPktJwVwvl0R0nzlUGAcpjGbCEzEoRERJEGWUwszJg5Zk1k9xGtOFzWA4dxVAkDPVlmEwm88ypZxTlUQ9HP1uhPPpJW09flEc9HP1shfLoJ209fVEe9XBkKw4ClEcHDEMeUkQMCcpRJjNzwCj7YQa7U89h7fylmGp9Euoza2trq+xWylmA8lgOLRnzUh5l5FBOFZTHcmjJmJfyKCOHcqqgPJZDi/O6IkB5dIVJ1EwUEVFxuCqGmbnClHcmdXmOePP1WGm4GkO9H2JlZQVeXJ7D2Tnl0UnDjMeURzNyclZJeXTSMOMx5dGMnJxVUh6dNPhYCwHKoxaMvjZCEfEVt5bOmFnlGPfmX0c0dBmmm36AsbEx6/IclbfmbknKoztOkuaiPEpKw10tlEd3nCTNRXmUlIa7WiiP7jhxrjIIUB7LgCVkVoqIkCDKKIOZlQHLMWv6YBUbXd/EWsMRDHX9DYuLi55vdVTdUx4dIRjykPJoSFCOMimPDhiGPKQ8GhKUo0zKowMGH+ohQHnUw9HPVigiftLW0xczq4zj/sLbiDVei5nGB6EYxuNxZDKZyhorYynKYxmwhMxKeRQSRBllUB7LgCVkVsqjkCDKKIPyWAYszuqOAOXRHSdJc1FEJKXhrhZm5o6Tcy51rONW/8MXtjp2voW5uTlftjqqGiiPziTMeEx5NCMnZ5WURycNMx5THs3IyVkl5dFJg4+1EKA8asHoayMUEV9xa+mMmZWPcX/pPcRbbsBc4/0YG4kgGo2W30iFS1AeKwQX4GKUxwDhV9g15bFCcAEuRnkMEH6FXVMeKwTHxQoToDwWZiN1CkVEajKF62Jmhdnkm5JJ7WB7+MkLWx3bX8bs7IxvWx1VPZTHfKnIHkd5lJ1Pvuooj/moyB5HeZSdT77qKI/5qHBcVQQoj1XhC2Rhikgg2KvqlJmVhy8RbcR6++2YD9+D8aEWqC8/P2+URz9p6+mL8qiHo5+tUB79pK2nL8qjHo5+tkJ59JN2nfRFeTQvaIoIMzOPgPuKM8lt7Iz9GtHzl2Ck7Y+YmZ7E3t6e+wY0zEl51ADR5yYojz4D19Ad5VEDRJ+boDz6DFxDd5RHDRDZxMUEKI8X8zDhGeXRhJQurpGZXcyj8LMMkhsRbHT9B+Ybv4GxgfNYWVnx5Qyrzpooj04aZjymPJqRk7NKyqOThhmPKY9m5OSskvLopMHHWghQHrVg9LURioivuLV0xszcYVTHOu5On8Za6ApMtP03pidHsLu7625hjXNRHjXC9KkpyqNPoDV2Q3nUCNOnpiiPPoHW2A3lUSNMNnWBAOXRvDWBIsLMzCPgruLU9ig2Or+OhfAdGO97D0tLS0ilUu4W1jgX5VEjTJ+aojz6BFpjN5RHjTB9aory6BNojd1QHjXCZFMXCFAezVsTKI/MzDwCpSvOpA+wv/COtdVxqvXnmBwfhPpxmclkSi+seQ7Ko2agPjRHefQBsuYuKI+agfrQHOXRB8iau6A8agbK5gDKo3lrAeWRmZlHoHTF6f1lbHTfh8XQLZjofdPa6phIJEov6MEclEcPoHrcJOXRY8AeNE959ACqx01SHj0G7EHzlEcPoNZ7k5RH89YAyiMzM49AiYozKewvnkU0dDlmmo9jfLQPm5ubgWx1VJVSHkvkJXAy5VFgKCVKojyWACRwMuVRYCglSqI8lgDEyeUToDyWzyzoJSiPQSdQfv/MrDizTHoPG133Yil0A8a6X8Pi4iKUDAR1ozwGRb7yfimPlbMLaknKY1DkK++X8lg5u6CWpDwGRb6G+6U8mhcuRYSZmUegeMWJWCuiDZ/DbNN3MTIyBPUDJYhjHe0qKY82CXPuKY/mZGVXSnm0SZhzT3k0Jyu7UsqjTYL32ghQHrWh9K0hyqNvqLV1xMyKoMyksdH1Law0XIOJrtNYWFjA3t5ekQW8n0R59J6x7h4oj7qJet8e5dF7xrp7oDzqJup9e5RH7xnXXQ+UR/Mip4gwM/MIFK74YK0B0fOfxXzjNzA82It4PB7oVkdVKeWxcF5Sp1AepSZTuC7KY2E2UqdQHqUmU7guymNhNpxSIQHKY4XgAlyM8hgg/Aq7ZmYFwKUPrK2Oqw1HMNrxF8zNzQW+1VFVSnkskJfg0ZRHweEUKI3yWACM4NGUR8HhFCiN8lgADEdXToDyWDm7oJakiARFvvJ+mVl+dol4O2KhI1hovBvDgxFEo1Gk0+n8M/s4lvLoI2xNXVEeNYH0sRnKo4+wNXVFedQE0sdmKI8+wq6XriiP5iVNEWFm5hHIrTiT2sVW/48QbbgEI+2nMTs7i52dndwZAxhDeQwAepVdUh6rBBjA4pTHAKBX2SXlsUqAASxOeQwAeq13SXk0L2HKIzMzj0BuxYm1BsSbv4TF8B0YGuiG+oKTsNVRVUp5zM1L+hjKo/SEcuujPOYykT6G8ig9odz6KI+5TDimSgKUxyoBBrA45TEA6FV2ycwuBphJbmNr4BFEGy7FUNsLmJmZwe7u7sUzBfiM8hgg/Aq7pjxWCC7AxSiPAcKvsGvKY4XgAlyM8hgg/FrtmvJoXrIUEWZmHoGLKz5Y/SfirTdjPnwPhge6sLKyEvgZVp0VUh6dNMx4THk0IydnlZRHJw0zHlMezcjJWSXl0UmDj7UQoDxqwehrI5RHX3Fr6YyZOTCmD7A9/Avr8hxDbWcwOzMt5lhHu0rKo03CnHvKozlZ2ZVSHm0S5txTHs3Jyq6U8miT4L02ApRHbSh9a4gi4htqbR0xs09RqjOsrnfcjfnGb2J0sAVLS0ufThTyiPIoJIgyyqA8lgFLyKyURyFBlFEG5bEMWEJmpTwKCaKWyqA8mpcmRYSZmUfgQsWZ1A52Jn6HaOgIxtqexcz0mKhjHW2ulEebhDn3lEdzsrIrpTzaJMy5pzyak5VdKeXRJsF7bQQoj9pQ+tYQ5dE31No6YmYKZQaJeCfWO76G+fBdGO37GMvLy6KOdbQDpzzaJMy5pzyak5VdKeXRJmHOPeXRnKzsSimPNgneayNAedSG0reGKCK+odbWETMDMskt7E7+EWuhKzHedhJTk8PijnW0A6c82iTMuac8mpOVXSnl0SZhzj3l0Zys7EopjzYJ3msjQHnUhtK3higivqHW1hEzyyC50Y/19rswH74bY30fWlsdU6mUNsY6G6I86qTpT1uUR3846+yF8qiTpj9tUR794ayzF8qjTppsyyJAeTRvRaCIMDPTCGRS29id+hNWQ1dhsu1pTI4PQf1wzGQyIl8K5VFkLEWLojwWxSNyIuVRZCxFi6I8FsUjciLlUWQsZhdFeTQvP8ojMzONQGp7AvHWWzAf/irG+j6wtjomEgmxL4PyKDaagoVRHguiETuB8ig2moKFUR4LohE7gfIoNhpzC6M8mpcd5ZGZGUUgk8Tu5B+w2nAlptp+gYnxEWxtbYnd6qjYUh6NWsOsYimP5mVGeTQvM8qjeZlRHs3LTHzFlEfxEeUUSHnMQSJ+RD1nlt5fRazpWiyGvoKRvo/Eb3VUKxPlUfxbKqdAymMOEvEjKI/iI8opkPKYg0T8CG3yePbsWRw9etQaTp06VfCFO+dTj/Pdzp07Z7Vz5swZ6xiWfPNwnFwClEe52RSqrJ5FpBAT6ePrN7MMdsZ/i7WGI5hqPYHx8XFsbm6K3uqo1iXKo/R3VG59lMdcJtLHUB6lJ5RbH+Uxl4n0MVrksaurC8eOHYNaAfb393HixAnkE0M1nz1eCcYDDzwAdZ99ozxmEzHrOeXRrLxUtfUrIuZlZVdcr5ml9xYQC1+JpdDNGI58Ym11VD/ypd8oj9ITyq2P8pjLRPoYyqP0hHLrozzmMpE+Ros8qi2NthSqF6wkUQmkEslCN1sy1bzZN1sen3vuOayurlpbH9UHAgczGAwODlrHHzEvM/JSOUUiEb6/DPuMqcfMdrY3sTXyNNbOX4rhhsfQ39+PxcVFI9bdF198EU8//TTU5yM/G834bIzFYtYfa8zLjLxUTuo3o/oDm5mZk9nCwgJmZ2eZmUG/QVReTzzxhLWX6MzMTLbG5X3+GedYJYEnT568aAuieuMeP37c2hLpnNf5uNg8tjwqKVXzLS0tcTCIQXt7O9SHAXMzZ71taWlhXga9x9R7qx4zWxgPYTV0NZYarkdL6O/o6+uzfnSY8Flz+vRpPPXUU+jo6OB7zZD3mvpR1N3dzbwMyUt9DqjfjOpzwYTPBNZ44TeS2otG/alGHub8ZlR5PfbYY5XLo9rcrERRvWHtWzExVEKojo20d3O1l3He2/LIYx6dVMx5rPJPp9PmFMxKuduqgetA3e22mklie+S/EG24FOMtT1nfORsbG+KPdbRXLe62apMw5567rZqTlV2p2uKoJIQ3cwhwt1VzsrIrrXq31Uq3PKqVRQlksd1WKY92TGbdUx7NyktVW3ciYl5EORXXW2bJ9R7ruo5LoaMYiDRZPxAlX9cxOzDKYzYR+c8pj/Izyq6Q8phNRP5zyqP8jLIr1CKP6vhGpwS6OeZRFaKOk8x3ZlZuecyOyaznlEez8lLV1puImJdQbsV1lVk6YW11jIU+j9GWX2Nqaso6w2ouFbljKI9ysylUGeWxEBm54ymPcrMpVBnlsRAZueOrlkf10pyymH0iHCWHtiC+8MILh7u3csuj3JWi2sooj9US9H/5uhIR//F60mM9ZZaId2C9/U4shm7BYKTZOklOKpXyhKtXjVIevSLrXbuUR+/YetUy5dErst61S3n0jq1XLWuRR1WcfSyjOp7ReeZVpzzawmhfD9I5n/MFcsujk4Z5jymP5mVWTyJiXjr5K66bzNIH2Bk7iWjoMoy0/AbTUxPGbXVUCVIe86/HksdSHiWnk782ymN+LpLHUh4lp5O/Nm3ymL/5ysZSHivjJmUpyqOUJNzXUTci4h6J+DnrI7MMEtFGrLffgYXQbRjuC1lbHU08IRflUfxbKqdAymMOEvEjKI/iI8opkPKYg0T8CMqj+IjMK5DyaF5m9SEi5uVSrOJ6yCyTiGN75CmsNVyGkbY/Y2pyHDs7O8WwiJ1GeRQbTcHCKI8F0YidQHkUG03BwiiPBdGInUB5FBuNuYVRHs3Lrh5ExLxUildc85ll0kishbDe+mXMNd6HsYEQlpeXjbk0R3Z6lMdsIvKfUx7lZ5RdIeUxm4j855RH+RllV0h5zCbC51UToDxWjdD3BmpeRHwn6n2HtZ5ZOhHDzugzWG24EuPtf8D01Dh2d3e9B+tRD5RHj8B62Czl0UO4HjVNefQIrIfNUh49hOtR05RHj8DWc7OUR/PSr3URMS+R0hXXdGZqq2OsDfGWGzHXeD/GBxqwsrIC086w6kyR8uikYcZjyqMZOTmrpDw6aZjxmPJoRk7OKimPThp8rIUA5VELRl8bqWkR8ZWkf53VcmbWsY5DP8NKw3WY6Dh1eKxjJpPxD7DmniiPmoH60Bzl0QfImrugPGoG6kNzlEcfIGvugvKoGSibg3UtTxPPhljP2dWyiNRqrjWbWSaNg7UQYuGrMNv0HYwOtmB1dRXJZNLoKCmP5sVHeTQvM8qjeZlRHs3LjPJoXmbiK+aWR/ER5RRYsyKS80prZ0StZpZJ72Mz8p9YbvgiJjqfw8z0tNHHOtprHOXRJmHOPeXRnKzsSimPNglz7imP5mRlV0p5tEnwXhsByqM2lL41VKsi4hvAADqq1cwSsVZEGy7FXOO9GBnsRiwWM/pYR3vVoDzaJMy5pzyak5VdKeXRJmHOPeXRnKzsSimPNgneayNAeT7VivoAACAASURBVNSG0reGalVEfAMYQEc1mVkmaZ0kRx3rONb1MmZmZoy9rmP2KkF5zCYi/znlUX5G2RVSHrOJyH9OeZSfUXaFlMdsInxeNQHKY9UIfW+gJkXEd4r+dliLme3NvYbo+Usw2/gdDA0N1cxWR7VmUB79fX/o6I3yqIOiv21QHv3lraM3yqMOiv62QXn0l3dd9EZ5NC/mWhQR81Ior+Jayyy9v4x46y1YbbgGw13vYH5+Hnt7e+VBETw35VFwOAVKozwWACN4NOVRcDgFSqM8FgAjeDTlUXA4ppZGeTQvuVoTEfMSKL/imsosk8LO2P9YxzpONT8K9dri8ThMvjRHdqKUx2wi8p9THuVnlF0h5TGbiPznlEf5GWVXSHnMJsLnVROgPFaN0PcGakpEfKcXTIe1lFlyow/rbbdiOfRFDPT8CwsLC9jf3w8GrEe9Uh49Auths5RHD+F61DTl0SOwHjZLefQQrkdNUx49AlvPzVIezUu/lkTEPPqVVVwrmWVSu9gefhKx0GUYa3kGExMTUD8mammro0qY8ljZeh7kUpTHIOlX1jflsTJuQS5FeQySfmV9Ux4r48alihCgPBaBI3RSrYiIULyelFUrmSWijdZWx4XwnRjobcLi4iKSyaQnzIJslPIYJP3K+qY8VsYtyKUoj0HSr6xvymNl3IJcivIYJP0a7ZvyaF6wtSIi5pGvvOJayCx9sIqtwZ8iGroCw21/xvTUJLa2tiqHInhJyqPgcAqURnksAEbwaMqj4HAKlEZ5LABG8GjKo+BwTC2N8mhecrUgIuZRr67iWsjsYPkDxFtusC7NMTLQYm11rLXdVe2UKY82CXPuKY/mZGVXSnm0SZhzT3k0Jyu7UsqjTYL32ghQHrWh9K2hWhAR32AJ6cj0zFI709js+yFWGy7HcPuLmJ6ewu7urhC6+sugPOpn6nWLlEevCetvn/Kon6nXLVIevSasv33Ko36mdd8i5dG8VcB0ETGPePUVG51ZJon9xXcQbbwaU00/xthQB1ZXV2vuJDnOlCmPThpmPKY8mpGTs0rKo5OGGY8pj2bk5KyS8uikwcdaCFAetWD0tRGjRcRXUnI6MzezDFLbY9jovg9LoZsx2v0GZmdnsbe3JweuB5VQHj2A6nGTlEePAXvQPOXRA6geN0l59BiwB81THj2AWu9NUh7NWwPMFRHzWOuq2NTM1KU59mbOYC10JSZbfobxkV7E43Gk02ldaES2Q3kUGUvRoiiPRfGInEh5FBlL0aIoj0XxiJxIeRQZi9lFUR7Ny89UETGPtL6Kzcwsg+TmANZbv4yF8B0Y7T2L+fl5qB/ptX6jPJqXMOXRvMwoj+ZlRnk0LzPKo3mZia+Y8ig+opwCzRSRnJdRVyOMzCx9gO2Rp7DScDUm236NibFhbGxs1PxWR7ViUh7Ne3tSHs3LjPJoXmaUR/Myozyal5n4iimP4iPKKdBIEcl5FfU1wsTMEvF2xBqvxkLjPRjua8Ty8nJdbHVUaybl0bz3J+XRvMwoj+ZlRnk0LzPKo3mZia+Y8ig+opwCTRSRnBdRZyNMy0wd67je9U2sNFyDsY7nMDU1ia2trZo+w6pzlaQ8OmmY8ZjyaEZOziopj04aZjymPJqRk7NKyqOTBh9rIUB51ILR10ZMExFf4QjtzLTM9mZfQbThUsw33Y/BwX6oL59kMimUrv6yKI/6mXrdIuXRa8L626c86mfqdYuUR68J62+f8qifad23SHk0bxUwTUTMI6y/YpMyS+8tIBa+AqsNV2Cw66x1aY6dnR39UAS3SHkUHE6B0iiPBcAIHk15FBxOgdIojwXACB5NeRQcjqmlUR7NS84kETGPrjcVm5JZRp0kZ/hJRBs+h8mWn2NkZASxWKwuTpLjTJ7y6KRhxmPKoxk5OaukPDppmPGY8mhGTs4qKY9OGnyshQDlUQtGXxsxRUR8hSK8M1MyO4iGEG/+EpbCt6KvtwOLi4vY398XTld/eZRH/Uy9bpHy6DVh/e1THvUz9bpFyqPXhPW3T3nUz7TuW6Q8mrcKmCIi5pH1rmITMkvvL2Ez8p9YC12Foba/QH02qEtzZDIZ78AIbZnyKDSYImVRHovAETqJ8ig0mCJlUR6LwBE6ifIoNBiTy6I8mpeeCSJiHlVvKxafWfoAe7MvIdZ0HaabfoChwYh1aY5UKuUtGKGtUx6FBlOkLMpjEThCJ1EehQZTpCzKYxE4QidRHoUGY3JZlEfz0hMvIuYh9bxi6ZklN3qx0f0tLIVvwVDX3zAzM43d3V3PuUjtgPIoNZnCdVEeC7OROoXyKDWZwnVRHguzkTqF8ig1GYProjyaF550ETGPqPcVS84snYhhZ+zXiIavxFjrrzE+OmidJKced1e11wTKo03CnHvKozlZ2ZVSHm0S5txTHs3Jyq6U8miT4L02ApRHbSh9a0iyiPgGwbCOxGaWSeFg9RPEW27AXON/YCTyCebm5pBIJAwjrLdcyqNenn60Rnn0g7LePiiPenn60Rrl0Q/KevugPOrlydYA66QY6XSaLAwiIFZEDGLod6lSM1PXdNzq/zFWQ9dgpO05TE5OYGtrqy5PkuNcJyiPThpmPKY8mpGTs0rKo5OGGY8pj2bk5KyS8uikwcdaCHDLoxaMvjYiVUR8hWBYZxIzy6T3sTf/GqLnP4upph9hdKgLS0tLqNeT5DhXKcqjk4YZjymPZuTkrJLy6KRhxmPKoxk5OaukPDpp8LEWApRHLRh9bUSiiPgKwMDO5GWWQWprBOttt2MxfAdGut/G9PQ09vb2DKSrv2TKo36mXrdIefSasP72KY/6mXrdIuXRa8L626c86mda9y1SHs1bBeSJiHkM/a5YWmaZ5Ba2Bh/HasNVmGh9BmOjQ4jH49zq+O8Vg/Lo9zuk+v4oj9Uz9LsFyqPfxKvvj/JYPUO/W6A8+k28DvqjPJoXsjQRMY+g/xVLy2x/6V1EQ1dgrvF+DPeFsbi4iP39ff/BCO2R8ig0mCJlUR6LwBE6ifIoNJgiZVEei8AROonyKDQYk8uiPJqXnjQRMY+g/xVLyiy1O4v1ttuwHLoeI52vYmpqiifJyVolKI9ZQAx4Snk0IKSsEimPWUAMeEp5NCCkrBIpj1lA+LR6ApTH6hn63YIkEfH7tZvan5TMMukDbA0+hrXzl2Kq5WcYGR6E+mJJJpOmovWkbsqjJ1g9bZTy6CleTxqnPHqC1dNGKY+e4vWkcW3yePbsWRw9etQaTp06lbdYtQvTiRMnSs537tw5a54zZ85AfRDwZhYByqNZealqpYiIeeSCq1hKZvuLf0csfAUWw3dioCeEhYUF7O7uBgdGaM+UR6HBFCmL8lgEjtBJlEehwRQpi/JYBI7QSVrksaurC8eOHYNaAWxBVDKZfVPj1LzqVmw+ymM2ObOeUx7NyktVK0VEzCMXXMUSMkvtzmC9426shS7HQPtb1jVe1UlyMplMcGCE9kx5FBpMkbIoj0XgCJ1EeRQaTJGyKI9F4AidpEUe1ZZGpywqQVRbGEudLEEtk28rJeVR6NrisizKo0tQgmaTICKCcBhRStCZqWs6bg8/iWjoMkw0P4mhoUGsrKzw7KoF1h7KYwEwgkdTHgWHU6A0ymMBMIJHUx4Fh1OgtKrlUQniyZMnrX+c7T6UPBw/ftzaEmmPy753s+Xx2WefRSQSsbaKqB9KHMxgcP78eQwPDzMvg9bZjz/+mHkZlJf6LAw2sxFM95zGavhLmP3njXj37FsIh8P8vC6yDv3pT3/CL3/5S4RCIb7XinCS9D0/MDBgrdeSamItxX8Hqd+MLS0tfI8Z8h5T67Pa4NTe3s7MDMpM5fXjH//YOsRwZmYmW/HyPv+Mc6z6x0CJohJG++ZGHtUWx0JbJ7nl0SZp5j23PJqXm/oA580sAsFllkFyewwbPd/GasMVGGp/CZOTE4jFYmYB9Llabnn0GbiG7rjlUQNEn5vglkefgWvojlseNUD0uQnftzyqlUQdH5lvd1X7tVMebRJm3lMezcstOBExj5WUioPKLJNYx874bxANX4XJ5p9hdKgHS0tL3F21xIpBeSwBSOBkyqPAUEqURHksAUjgZMqjwFBKlKRFHtUWRPtEOKq/Qsc8Kql44IEHLtpKma8+ymM+KuaMozyak5VdaVAiYvfP+/IJBJGZOs5xf/kDxFtvwXz4Hgz1fITZ2VmeXdVFfJRHF5CEzUJ5FBaIi3Iojy4gCZuF8igsEBflVC2Pqg+nLNrHMtoyqbYw2lsZ1b3zxDqF6qM8FiJjxnjKoxk5OasMQkSc/fNx+QT8zyyD5NYINrrvw3LoKMY6nsfkxAh4dlV32VEe3XGSNBflUVIa7mqhPLrjJGkuyqOkNNzVokUeVVdKDO3rPDoF0ZZHWyrteez7fMc9Uh7dhSd1Lsqj1GQK1+W/iBSuhVPcEfA7s0xiAzujv8Ja6CpMtpzA6FA3lpeXkUgk3BVc53NRHs1bASiP5mVGeTQvM8qjeZlpk0edL53yqJOm/21RHv1nXm2PfotItfVyeZ+vzZlJ42DlY8Qar8Vc47cwHPnkcHdVXtPR3dpIeXTHSdJclEdJabirhfLojpOkuSiPktJwVwvl0R0nzlUGAcpjGbCEzEp5FBJEGWX4mVl6dxbxtluxFLoBI50vYWJiDBsbG0in02VUXN+zUh7Ny5/yaF5mlEfzMqM8mpcZ5dG8zMRXTHkUH1FOgX6KSE7nHFERAT8z2+z9HtYaLsdU6wkMDw1idXWVu6uWmRrlsUxgAmanPAoIocwSKI9lAhMwO+VRQAhllkB5LBMYZy9NgPJYmpG0OfwUEWmv3dR6fMksk8bu1J8RPf9ZLDR+Ff2RTszPz2NnZ8dUbIHVTXkMDH3FHVMeK0YX2IKUx8DQV9wx5bFidIEtSHkMDH3tdkx5NC9bX0TEPCyiK/Y+swyS652IhY5gJfQFDHS9Z11mSe2uyuMcy181KI/lMwt6Ccpj0AmU3z/lsXxmQS9BeQw6gfL7pzyWz4xLlCBAeSwBSOBk70VE4Is2vCSvM0vtTGOj65vW7qqjbb/HyMgI1BdGMpk0nFww5VMeg+FeTa+Ux2roBbMs5TEY7tX0Snmshl4wy1Ieg+Fe071SHs2L12sRMY+I/Iq9zCydiGF79GlEw1diuulh9Pf3Y3FxEXt7e/LBCK2Q8ig0mCJlUR6LwBE6ifIoNJgiZVEei8AROonyKDQYk8uiPJqXnpciYh4NMyr2KrNMahd7c68i3vwlzDV+EwPd/8T09DQ2Nze5u2oVqwblsQp4AS1KeQwIfBXdUh6rgBfQopTHgMBX0S3lsQp4XDQ/Acpjfi6Sx3olIpJfs+m1eZJZJoXEWhjrHXdjOXwLBttfxcTEOGKxGC/LUeUKQ3msEmAAi1MeA4BeZZeUxyoBBrA45TEA6FV2SXmsEiAXzyVAecxlIn2MJyIi/UUbXp8XmaW2x7DZ9xDWQldjtOVZjA73Y2lpCalUynBawZdPeQw+g3IroDyWSyz4+SmPwWdQbgWUx3KJBT8/5TH4DGquAsqjeZF6ISLmUTCrYt2ZqeMcd8Z/Yx3nONX8KIb7WzA3N4f9/X2zwAitlvIoNJgiZVEei8AROonyKDSYImVRHovAETqJ8ig0GJPLojyal55uETGPgHkVa80sfYD9pX8g1ngV5sL3YrD7A0xNTWFra4vHOWpaNSiPmkD62Azl0UfYmrqiPGoC6WMzlEcfYWvqivKoCSSb+ZQA5fFTFqY80ioiprxow+vUl1kGyc0BxFtvwXL4Zgx3vIjx8XFEo1Ee56hxHaE8aoTpU1OUR59Aa+yG8qgRpk9NUR59Aq2xG8qjRphs6gIByqN5a4I+ETHvtZtasa7M0vsr2Ox9EKuhazDR+gxGhvuxvLyMRCJhKhqRdVMeRcZStCjKY1E8IidSHkXGUrQoymNRPCInUh5FxmJ2UZRH8/LTJSLmvXJzK9aRWSa5ie3hX2Ct4fOYbj6Oof5WzM/PY3d3l7ural41KI+agfrQHOXRB8iau6A8agbqQ3OURx8ga+6C8qgZKJsDKI/mrQU6RMS8V212xVVnlklid/p5RM9/FvON38RgzyeH13NMp9NmwxFYPeVRYCglSqI8lgAkcDLlUWAoJUqiPJYAJHAy5VFgKKaXRHk0L8GqRcS8l2x8xVVllklif+l9xBqvxnLoJgx1vmkd56iu58jLcnizalAeveHqZauURy/petM25dEbrl62Snn0kq43bVMeveFa161SHs2LvyoRMe/l1kTF1WSWiDZhvf0O63qOw22nMTIygpWVFagfy7x5Q4Dy6A1XL1ulPHpJ15u2KY/ecPWyVcqjl3S9aZvy6A3Xum6V8mhe/NWIiHmvtjYqrjSz5NYINnu/i2j4Coy2PovBgT4sLCzweo4erxaUR48Be9A85dEDqB43SXn0GLAHzVMePYDqcZOUR48B12PzlEfzUq9URMx7pbVTcSWZpfcWsDX4U0RDl2Gi+Qn0R9oxNzcH9YMrk8nUDhyBr4TyKDCUEiVRHksAEjiZ8igwlBIlUR5LABI4mfIoMBTTS6I8mpdgJSJi3qusrYrLzUydWXVn4veIhY5gtvE76OtuwMzMDOLxeG2BEfpqKI9CgylSFuWxCByhkyiPQoMpUhblsQgcoZMoj0KDMbksyqN56ZUrIua9wtqruJzMMukD7C+8bZ0gZ7HxHvR3vmedFXl1dbX2wAh9RZRHocEUKYvyWASO0EmUR6HBFCmL8lgEjtBJlEehwZhcFuXRvPTKERHzXl1tVuw6s3QCBysfIdZ8FMvhmzHcfgZjYyNYXl7mmVV9XDUojz7C1tQV5VETSB+boTz6CFtTV5RHTSB9bIby6CPseumK8mhe0q5FxLyXVrMVu8osk0ZyvQsbnV/HSugoRtv+iJHhQSwtLfHMqj6vGZRHn4Fr6I7yqAGiz01QHn0GrqE7yqMGiD43QXn0GXg9dEd5NC9lVyJi3suq6YrdZJbaHsdG971YabgGE23PYHigC/Pz89jd3eUJcnxeOyiPPgPX0B3lUQNEn5ugPPoMXEN3lEcNEH1ugvLoM/B66I7yaF7KbkTEvFdV2xWXykyJ42bfQ1htOILJ5scx2NeK2dlZbG1tIZ1O1zYcga+O8igwlBIlUR5LABI4mfIoMJQSJVEeSwASOJnyKDAU00uiPJqXYCkRMe8V1X7FxTJLH0Sx1f8jRM9fgummH2KgN4Tp6WlsbGxQHANaNSiPAYGvolvKYxXwAlqU8hgQ+Cq6pTxWAS+gRSmPAYGv5W4pj+alW0xEzHs19VFxoczSB2vYHv45YqHPY77pPvR3/wtTU1OIxWJIJpP1AUfgq6Q8CgylREmUxxKABE6mPAoMpURJlMcSgAROpjwKDMX0kiiP5iVYSETMeyX1U3G+zDLJLWyP/AKx8OVYaP4WIl3nDy/JkUql6geOwFdKeRQYSomSKI8lAAmcTHkUGEqJkiiPJQAJnEx5FBiK6SVRHs1LMJ+ImPcq6qvinMzSB9ides66luNK+Eb0dDRgbGwMKysr3OIoYNWgPAoIocwSKI9lAhMwO+VRQAhllkB5LBOYgNkpjwJCqLUSKI/mJZojIua9hLqr2JlZJrWHvZmXEGu8FsvhW9DXcRZjY6NYXFykOApZMyiPQoIoowzKYxmwhMxKeRQSRBllUB7LgCVkVsqjkCBqqQzKo3lpOkXEvOrrs2I7s0xyG3tzf0Ws6YtYCt+GwfY3MToybInj3t5efcIR+KopjwJDKVES5bEEIIGTKY8CQylREuWxBCCBkymPAkMxvSTKo3kJ2iJiXuX1W7HKLJPaxd7ca5Y4qi2Ow+0vYmhwgOIocLWgPAoMpURJlMcSgAROpjwKDKVESZTHEoAETqY8CgzF9JIoj+YlSHk0MLORYRysnPu3ON6IsfZTGB7swfz8PHZ3d817QTVeMeXRvIApj+ZlRnk0LzPKo3mZUR7Ny0x8xZRH8RHlFEh5zEEifsRU74tYb78DK+EbLhLHra0tZDIZ8fXXW4GUR/MSpzyalxnl0bzMKI/mZUZ5NC8z8RVTHsVHlFMg5TEHiegRB8sfQJ1RdSX8JYy2/QFDA93WFkcljul0WnTt9Voc5dG85CmP5mVGeTQvM8qjeZlRHs3LTHzFlEfxEeUUSHnMQSJyRObfl+OIt9yE1YYrMdL2Zwz0dWFubg4UR5GRHRZFeTxEYcwDyqMxUR0WSnk8RGHMA8qjMVEdFkp5PETBB7oIUB51kfSvHcqjf6wr7emCOP4JsabrEA1djtC7J9Hf130ojtxVtVKy/ixHefSHs85eKI86afrTFuXRH846e6E86qTpT1uUR38411UvlEfz4qY8Cs9MbXGcft66jqMSx8G2l/GPf/z9cFdViqPw/ABQHuVnlF0h5TGbiPznlEf5GWVXSHnMJiL/OeVRfkbGVUh5NC4yUB7lZmZdjmPmJUscV8PXY6j9RQwO9KOxsRGbm5tyC2dlFxGgPF6Ew4gnlEcjYrqoSMrjRTiMeEJ5NCKmi4qkPF6Eg090EKA86qDobxuUR395u+stg/RBFLvTpy9cjqPxDgx2vInBwQEsLCygu7vbXTOcSwQByqOIGMoqgvJYFi4RM1MeRcRQVhGUx7JwiZiZ8igihtoqgvJoXp6UR2mZZZDeX8HOxG+t4xsXG+/CUMerGBocONxVlZlJy6x4PZTH4nwkTqU8SkyleE2Ux+J8JE6lPEpMpXhN2uTx7NmzOHr0qDWcOnWqaK9q3mPHjkGtMPlu586ds9o5c+YM1AcBb2YRoDyalZeqliIiK7PUziR2xk4iGr4aC033Yrjjrxga+lQc1TGOzExWZqWqoTyWIiRvOuVRXialKqI8liIkbzrlUV4mpSrSIo9dXV2HMri/v48TJ05ACWL2Tc2nBPPkyZM4fvw45TEbUI08pzyaFyRFRE5myc0hbPY9hLWGyzDf/G0Mdb+LkZERLC4uWn+m2SfHYWZyMnNTCeXRDSVZ81AeZeXhphrKoxtKsuahPMrKw001WuRRbWl0yqKSRCWQSiTz3ZRcUB7zkamNcZRH83KkiMjI7GCtARs9DyB6/lLMtPwIg13vWVsYl5aWsLu7C1scVbXMTEZmbqugPLolJWc+yqOcLNxWQnl0S0rOfJRHOVm4raRqeVSCqLYkKmGwb6XksNR0e7fV3//+99YPJHUBbA7mMGhpacHMzAwzM2i9DYfDzCvIvGansDbyIuJtt2Ot4Qh6Pvw+Pv7gdeuMqurPOCWK2e8pZmbOZ6L6/nr++efx1FNPobW1le+1IN9rZfQ9MTGB9vZ25lUGs6B/q6nPSnUysaDrYP/uP58HBwcRiUSYmUHvM5XXo48+au1Nqn6buLl9xjmT+sdAbUX0Qh5Pnz6NWCwG9e8fB3MYqF3s9vb2mJlB6+3AwADzCiiv/Z04Nsafx1rjUevkOCNt/4fO9pC1q+r8/Dy2trasvTiyPwOZmTmfiSq7l19+GU8//bSVa3aWfC4zS3UpHCWQzEdmPvlyUb8Z1Y/ZfNM4TmaOKysr1hnEmY/MfPLlos74rvYwVYciViSPXm555AlznJpuzmP1R0I6nTanYFbKXSADWgfUpTh2xv8HsfAVWGu8AYNtL6G3pwuzs7NYXV1FMpksWBl3Wy2IRuQE7rYqMpaiRakfTWoLEm/mEOBuq+ZkZVfK3VZtEubca9ltVdmn2rXKvvGYR5tEfd5THs3LnSLic2aZNFI7M9gaeATR85dgufluDHa8hf6+C7vuqA/mUn/AMDOfM6uyO8pjlQADWJzyGAD0KrukPFYJMIDFKY8BQK+yy6rlUfXvlEX7bKu2TKqT6WRfusPtMY/c8lhlugEtTnkMCHwV3VJEqoBX5qKZ9AESsTZsdN9nHd843/JdDHR9AHXch9pNdWNjo6Q4qi6ZWZngA56d8hhwABV0T3msAFrAi1AeAw6ggu4pjxVAC3gRLfKoXoMSRPs6j84zr1IeA044gO4pjwFAr7JLikiVAF0unk7Esb/0LuItN2E1/EVMtz6GgZ5PLBHMvhRHqSaZWSlCsqZTHmXl4aYayqMbSrLmoTzKysNNNZRHN5RkzaNNHnW+LPtsq9zyqJOqf21RHv1jrasniogukoXbSW2PYWf8WeukOCuNX8FE++8wEGmxTsihThiQfSmOwi1dmMLMShGSNZ3yKCsPN9VQHt1QkjUP5VFWHm6qoTy6oSRrHsqjrDxqohrKo3kxUkS8yyyT3sfBWgibke8j2nAJFprvx0jnSxjo78XU1BSi0ah1ZkDnNRzdVMPM3FCSMw/lUU4WbiuhPLolJWc+yqOcLNxWQnl0S0rOfJRHOVnUTCWUR/OipIh4k5k6m+re7CtYb78d0fA1mGp9wjq+cXh42DqjqvrSLHZG1WJVMbNidORNozzKy6RURZTHUoTkTac8ysukVEWUx1KE5E2nPMrLxPiKKI/mRUgR0ZxZJo3k1hC2h3+OWNMXsNZ8K0bb/oC+nmaMj49DHd+ort+YSqUq7piZVYwukAUpj4Fgr6pTymNV+AJZmPIYCPaqOqU8VoUvkIUpj4Fgr+1OKY/m5UsR0ZeZ2k11f+VDrHfcjVjjVVhofgCDHW9ioL8H09PTWF5ehjordbm7qWZXyMyyich+TnmUnU++6iiP+ajIHkd5lJ1Pvuooj/moyB5HeZSdj5HVUR7Ni40ioiezTCKO7ZH/Qiz0eUTDV2Oq7Zfo7QxheHjI2k01FotVtbXRWSUzc9KQ/5jyKD+j7Aopj9lE5D+nPMrPKLtCymM2EfnPKY/yMzKuQsqjcZHxmoHVRpZOILnZj/X2OxE9fymWG2/FaOcr6Onpsc6mqnZT3dnZqbaXi5anPF6EQ/wTyqP4iHIKpDzmIBE/gvIoPqKcAimPOUjEj6A8io/IvAIpj+ZlRhGpLLNMOoHUzvSFS3A0fA6roesw3/Yo+rv/N2ltWAAAG9dJREFUhYGBAczMzEB9yKofobpvzEw3UW/be+GFF/CrX/3K+jPB257Yui4ClEddJP1rh/LoH2tdPVEedZH0rx3Ko3+s66YnyqN5UVNEys0sA3Um1YOVj7DR9R+Ihq/EYuMdGO88jd7eXmtL7sLCAtSXYqVnUy1VETMrRUjW9J/85CeUR1mRlKyG8lgSkbgZKI/iIilZEOWxJCJxM1AexUVifkGUR/MypIi4zyyT2kUi3oGd0WcQbz6K1cabMNP2OAa6P7a2NqprN6oP1t3dXaTTafcNlzknMysTWMCzUx4DDqCC7imPFUALeBHKY8ABVNA95bECaAEvQnkMOIBa7J7yaF6qFBE3mWWQ2pnE3swZ60yq6rqN883fwWjHafRHOq2tjfPz89bWRvWjs9qzqZaqiJmVIiRrOuVRVh5uqqE8uqEkax7Ko6w83FRDeXRDSdY8lEdZedRENZRH82KkiBTPzLr8xuLfsNn7IOJNX8Ry052YaPs1+rvOYWhoAH5tbXRWycycNOQ/pjzKzyi7QspjNhH5zymP8jPKrpDymE1E/nPKo/yMjKuQ8mhcZDzbapHIEtFGbA08gnjz9VgLXYm59hMY6HgHA/1dGB8fhzq2cXNz07NjGwuVRnksREbmeMqjzFyKVUV5LEZH5jTKo8xcilVFeSxGR+Y0yqPMXIyuivJoXnwUkdzMkluj2B75JeItNyLacClW249hqOMNRHqaMToybF23MRqNWmdS9XoX1dzqQOHPB0XwOMqj4HAKlEZ5LABG8GjKo+BwCpRGeSwARvBoyqPgcEwtjfJoXnKUx08zU2dR3VXHNbZ+2ZLGaPMtGO38C7o7W9Hf32ddfmNpacm6bqOXJ8T5tKL8j5hZfi5Sx1IepSZTuC7KY2E2UqdQHqUmU7guymNhNlKnUB6lJmNwXZRH88KrexHJpJBOxLE3/wbW276C6PlLsNZ4PWa7nkFvVxN6enqg1uvFxUXE43Hfd1HNt0bVfWb5oAgeR3kUHE6B0iiPBcAIHk15FBxOgdIojwXACB5NeRQcjqmlUR7NS65eRUSdCCe9v4S9xb9hvf2riDZchtXGo1ho+zGGuv6B3t5ua/dQJY2rq6vY398XE269ZiYmgDILoTyWCUzA7JRHASGUWQLlsUxgAmanPAoIocwSKI9lAuPspQlQHkszkjZHvYlIJrV34bIbC29io/PriDZ8DqtNX8Zc648w0v02Ir1dGB4extzcnCWNOzs7nl96o9x1ot4yK5ePtPkpj9ISKV0P5bE0I2lzUB6lJVK6HspjaUbS5qA8SkukBuqhPJoXYr2ISCa1i+TmEPbm/oqN7vsRC1+O1ebbMdP6CMZ63kRfbxeGhoYwPT2NlZUVbG1tIZVKiQy0XjITCb+CoiiPFUALeBHKY8ABVNA95bECaAEvQnkMOIAKuqc8VgCNixQnQHkszkfi1FoXkUz6AIl4J3Ym/3BBGhuvsaRxuvVxjHa/bkmj2tKorteopFFdeiORSIjb2uhcd2o9M+drrYXHlEfzUqQ8mpcZ5dG8zCiP5mVGeTQvM/EVUx7FR5RTYK2KSCaxgYO189ge+S+sd34NsfBVWG35KqbbfoHhTiWNbRgZGbGkcXl52ZJG9YMxiEtv5IRSYkStZlbiZRs7mfJoXnSUR/Myozyalxnl0bzMKI/mZSa+Ysqj+IhyCqw1EUntLWB/4R1s9j6IeOstiIYux2rbvZjs+A0GOt/FQKQdo/+WRnXZDbV7qvQtjdmh1Vpm2a+v1p5THs1LlPJoXmaUR/Myozyalxnl0bzMxFdMeRQfUU6BNSEimSSSm4PYHn0G6+13ItZ0LaLnP4u1rh9gtON5RLr+if5IJ8bGxg6v1aikMZlMGrGlMTu0msgs+0XV8HPKo3nhUh7Ny4zyaF5mlEfzMqM8mpeZ+Iopj+IjyinQZBHJpPdwsPoJNiPfQyx0OaINlyLWeB2Wux/HYOc/0N3Zir5ILyYmJqyzp6rdU9XZU9PptJHSaIdncmb2a6ine8qjeWlTHs3LjPJoXmaUR/Myozyal5n4iimP4iPKKdAoEcmkoK7PmNqZxM7E7xBvvh7R85dgreEyrLXcibme3yPSHUZXVxcGBgas4xkXFhbEXnIjJwyXI4zKzOVrquXZKI/mpUt5NC8zyqN5mVEezcuM8mheZuIrpjyKjyinQNkikoE6W2o6EUNqexz7C29bxzKqazNGw1dhJXwjFtsewkTPq4j0tKK3t9e6RuPMzAzU8YzqQ25/f9/orYw5gQGQnVm+iut7HOXRvPwpj+ZlRnk0LzPKo3mZUR7Ny0x8xZRH8RHlFChSRDJJpPeXkdzos4Rxa/AxxJu+aAnjatMtWGi+D3M9v8Nwz3uWMKqtjOPj47C3Mm5sbFgnwcl5sTUyQmRmNcLWi5dBefSCqrdtUh695etF65RHL6h62ybl0Vu+XrROefSCap23SXk0bwWQIiJqd9T03gIS8Q7szb2KrcHHsd76ZUTVLqlNN2Oh+QHMdDyDsZ430dfTZu2Wqq7POD09DXUsYzwet45nVCfBqfWblMxqnbOu10d51EXSv3Yoj/6x1tUT5VEXSf/aoTz6x1pXT5RHXSTZziEByuMhCmMeBCkiF45fnMDBykfYnfwjtgZ+Yp0tVZ0pNdpyOxZbH8RU6y8w1vkiBnvDGOjvs3ZLVSfAUVsZo9GodakN9UNPnQSnXm5BZlYvjHW+TsqjTpr+tEV59Iezzl4ojzpp+tMW5dEfzjp7oTzqpMm2LAKUR/NWBL9FJJPaRSLehb35N7A9+its9n4H8ZaboI5jjLXciqWO4xhvexYjXW9gsOcTDPT3YGRkxDpj6uzsLFZWVixh3NvbM/ZSG9WuJX5nVm299b485dG8NYDyaF5mlEfzMqM8mpcZ5dG8zMRXTHkUH1FOgX6IiNoddX/5fWyP/rcli+vtdyDe9AXEwlci2noHFjsfw0j7cxjs/Bv6e86jvz9iCaNan5Qwqt1S1XGMShgTiUTNnQAnJ5QSI/zIrEQJnFwGAcpjGbCEzEp5FBJEGWVQHsuAJWRWyqOQIMoog/JYBizO6o4A5dEdJ0lzeSEimdQ2ErFma1fUzZ5vW8cuWrIY+vyFS2u034v57l9jqOM1RDo/QqS70RJGVYs6hlEJozpbqvpiUWdLTaVSdbVbaqn1w4vMSvXJ6ZUToDxWzi6oJSmPQZGvvF/KY+XsglqS8hgU+cr7pTxWzo5LFiBAeSwARvBoHSJi7Yoaa8XuzAtQsqi2KMZCR6xdUdXxi7Hmm7DW8ygmI6+iu6MR3Z0t6OnuwODgwOHuqHNzc4dbGNUPt0wmU/dbGAutNjoyK9Q2x+snQHnUz9TrFimPXhPW3z7lUT9Tr1ukPHpNWH/7lEf9TOu+RcqjeauAKxHJpIFM0rrmohLF9P4iDlbOYWfsv7HecfcFSWy45MKZURs+j7XwF7Da+X3MR/4PQ70fo7urA11dXYhEItYJb6ampqwT3qiT3tjHMKrdUXlzR8BVZu6a4lw+EKA8+gBZcxeUR81AfWiO8ugDZM1dUB41A/WhOcqjD5DrrQvKo3mJ54hIJoVMchvpRNy61mJqZwqJtQbsTp+Gut7ietttsM6GGjqCtfC1WA1fj6XQTVjueBjzkT9hNPIhIj3t6Onpsa7BODg4iLGxMczPz1u7oqrjF2OxGNQXfT1cVsOLNSInMy86YZvaCFAetaH0rSHKo2+otXVEedSG0reGKI++odbWEeVRG0o2ZBOgPNokzLjPpPYwPtyJ1O4cklvDSKx3/fuyGX+wrrO40XUvYuo4RTU0Xoe1pluw1PRVLDTdj/mOE5jpPW3JYm9Pp7VVsa+vD0NDQxgfH8fMzIwli6urq5Ysbm1tWccv1tMlNbxaCyiPXpH1pl3KozdcvWyV8uglXW/apjx6w9XLVimPXtL1pm3Kozdc67pVyqPM+NX1FNP7K1BbEZPrPThYC2F/6T3szpzGfMdPsdn3Q6y334VY41XWrqfRpuux1nIHllruxVzz9zDT+jNMd/0vJnrfwFCkAX2RbihRHBgYsHZDVbJonxVVfbDE4/G6v5yGl2sC5dFLuvrbpjzqZ+p1i5RHrwnrb5/yqJ+p1y1SHr0mrL99yqN+pnXfIuUxwFUgk0YmsX5BEDciOFj9Fw6UIE79GTsTv8P20BPY7PsBNjq/hnjzUURDlyHaeC2WQjdgte1eLLb9ALOtP8FE69OY6PwzxnrexHDkEwz0daK/vx9q91N1vUW1C6o6ZtE+wY3aBVVdRkN9caszo6pdUdXJbnjzjgDl0Tu2XrRMefSCqrdtUh695etF65RHL6h62ybl0Vu+XrROefSCap23SXn0dgWwTlazt4DU9hgS0UZrF9O92ZewM3kK28O/wNbAo9js/S42ur554fIYzdcjev7/Xdia2Ho71trvw1LHw5jr+DnGWv8HI+3PI/z+bzDc/R4Gexsw0NdxuDVRCYraoqhEUW1VXFxcRDQaPRTF3d1dqB9Y6jIalEVvc89unfKYTUT2c8qj7HzyVUd5zEdF9jjKo+x88lVHecxHRfY4yqPsfIysjvJYXWzpgzWkdiaQ3OjH/vIH2F88i92J31tnNd0aeASbvd+BOg5xvfMerLfdinjLTYg1XvPvy2JciljzUcTav4a1zu9jqfsEZrqUIL6AwbZXMNj5dwx0fYCBnvMYiLRioD9iHZ/44YcfQuWmhnyiuLOzY21RVGdDta+3SFmsLudql6Y8VkvQ3+Upj/7y1tEb5VEHRX/boDz6y1tHb5RHHRT9bYPy6C/vuuiN8pg/5kxyC6ntcaS2hnCwfA77C29hb+4VbA8/ie3Bn2Gj5xjW2+/EettXEG+9BfGWGxFv+gJiTdchFr78wklrGi6x7mOttyHWcR9We36GpZ6nMdXzPMa6X0Wk/V1EOj5EpPMTRLoaEOlpRn9EXUux//AkNiqf6elp62Q2amuiOgNqS0sL1Ae4OqGN2pqodjtVkkhRzJ+lhLGURwkpuK+B8uielZQ5KY9SknBfB+XRPSspc1IepSThvg7Ko3tWnNMlgXqRR7X7aGprGMmNCBLxduwtvInd2TPWsD34OLb6HsJm74OIt96MWPjKfw+XfyqC6nhDNTRciqi6PuL5z1q7l8Yar0Os/euItv8HViK/wnLk15iOvISx3nfQ1/VPdHc0obuzGd2dLejubEN3Vzv6Ij3o7++zTlyjjkdUGSgxVMck2oOSROdZT5Uk2rubquMY1ZZEbk10uZILmI3yKCCEMkqgPJYBS8islEchQZRRBuWxDFhCZqU8CgmijDK0yePZs2dx9OhRazh16lTBEtzMd+7cOaudM2fOWCfgKNgYJ4gk4J08ZoBMKs+QBNKJi4ZM+gDq7KLqMhQXDzvIpD4drOsXxtuQiDb/e2jE7uQfDoftkV9aArjZfT/UoETQOn5QHUOoZE9JnzUoAfzcheMKGy7DWsPnHcMRrDZcjrXGo9bxhmud38FKz0+x1PdbLPadwmTkTYxH/o7+7n+hq6srZ+ju7rYugaFOWKMugaGkQTFWu5cqIVxYWLhoUNdQdB6XqE5goySx2I0iUoyOzGnMTGYuhaqiPBYiI3c85VFuNoUqozwWIiN3POVRbjaFKtMij+oH77Fjx6zd3tQP1RMnTkBJYvbN7XyUx2xyAT5XZ+/MK2HZUrYHtVumOtPn9HgvUvvRCxeYVxeZdw4HUaT3l5DeW8w7qGsNKqFL7UxePGyPIxHvsM4cqs4e6hx2Z85ge+zkxcPIU9js/R42Or/pGL5ubfX7VP7USWQuRTR0xDFcjmj42sNhLXwdVsNfwkr4emtYDt2ApdDNF4bGO7Dc/gMsd/4Iy10/xULvbzEf+T9rmIi8jbG+9zAS+RCR7mYoAVRDT0/P4dDb2ws1KCm0L3ehhECdoEbtVqoGdYIaNSwtLVmDEsOVlRVLDtUZTtUXpRrUjxy1q2mlN4pIpeSCW46ZBce+kp4pj5VQC3YZymOw/CvpnfJYCbVgl6E8Bsu/kt61yKPa0uiURSWJSiCVSDpvbuez5fHFv/wZ2xtLyCQ3xQxpJT97C0jvzfsyqDNqJjeHkNwcrHpIxNqQiLWWNRys/hN7869hb/blksPOxO+t4/fUmTy3hp6wLguhLg3hHLb6j1+QuY67sZFnUMf5WUJnbdlTW/ccg9rFM3x1zrDW+EWsNd100bDaeDOWm27DctOdh8NS052YD9+DufA3Dof5lu9jvuMJzHf+3BrmOp/ETO8Lh8NU7ysYi7yL0b5z1jDQGz6UPyWCkUjkcFDXPLQHdUkLtZVweHjY2lKodiWdmJg4PNZQbTFUImjLoBJCtUupekMqKVQfpurSF2rXUvuMpl5e/oIi4vykMuMxMzMjJ7tKyqNNwpx7yqM5WdmVUh5tEubcUx7NycqutGp5VIJ48uRJazc6u1G1S93x48etH8D2OLfzqflteXzt/76LjeH/sc40qc42KWHYHn0aWwM/xmb/cV8G63ILbbdjve22qocLx9U5ZMwpZgUeL39yCWY+vMzVMPbuEQz87cqCQ//frkT3m1ei5a/XoOmV/MO/zlyDD/58Hd7/U9bw5y/g/dO34v0X780Z3nvpe3j3lZ9eNJx95XG888pJvP3qbw+Ht/76O7zy8l/w8ssvHw6vvPIKnMNf//pXOIfXXnsNr7/+Ot544w1reOutt/D2229bwzvvvGP9afKPf/wD7777Lj744AOos5aqQa3D9vDRRx/h448/xieffIJ//etf1hAKhRAOh9HY2GidrEadsKatrQ0dHR2BDKr+oPpmv5Vlzswq4xbU+qbk8cknn7Q+J4Kqgf2Wt86oz2X1+U1u5XELkldTU5P1XRtkDey7vPVF/R46f/4832cB/f6rZH1Vv10feeQR6xDDmZkZW/WK3n/GOVX9Y6BEUQmjfcsnj27nU23Y8vjiM1dg4r3PY/L9I4EME+8dwYXh81YdqpbRdy9Hz1tXo+uNazwbOt+4Gh2vX2UNDS9eh49Of7Gq4cPnr8OHz12HV39zPf76bHnDmf++EX986sslhz889WU8e+I2PP3TO/FfjxUefv7IV/HIQ/fg+Pe/nnf43ne+gfu+dS/uvTd3+Na3voV8w3333Yf7778/Z3jggQfgHNSu1d/+9rcvGh588EF897vfPRy+973v4fvf//7h8IMf/AAPPfTQ4fDDH/4Q9vDwww9b675a/9Xwox/96HBQbyo1PProo9agfjhyIAOuA1wHuA5wHeA6wHWA6wDXAZPXgccffxzf+MY3KpdHt1sU3c7nlMf7vnYNjj9wOR5+4Egww/1H8HDW8NB9l+PY16/CA/dc7elw/z0X+vj6ndfhrtu+oGU4evR6XH+9+0GdAOmGG25wPdx4440oNdx0000oNtx8883IN9xyyy249dZb8w633XYbbr/99pzhjjvuQPZw5513wjncddddcA5f/epX4RzuvvtufO1rXzsc7rnnHnAgA64DXAe4DnAd4DrAdYDrANeBelwH1G9j9btceUJFWx6VFKrjG9VxjvYt3zGPbudTbah9adXJRdRmUbVr1t///vfABnUs53vvvRfI8P777yOoQe2CqbYAq90t3Qxqd0y160GxQe2mqXYpaW5uzjuoXYTa29sL7rrQ2dkJt4NaB/MN9olreH/hBD7kQA5cB7gOcB3gOsB1gOsA1wGuA5WsA3t7e7b+Fb2/aLdVNadTFrMlUZ0kx750R7H58vWo2lIiaZ9YxO97dbmDeDxuHbupdrv1a9jc3LTOoLmzs4NqBxVqIpGwzsSpTrhS7mBfKN7NfTqdRqnBvpZgoft86wHHkQAJkAAJkAAJkAAJkAAJmEkgRx7Vy1CCaF/n0XnmVac8FpuvEIpCklHr4wvx4HgSIAESIAESIAESIAESIAESMIVAXnk0pXjWSQIkQAIkQAIkQAIkQAIkQAIk4A8ByqM/nNkLCZAACZAACZAACZAACZAACRhNgPJodHwsngRIgARIgARIgARIgARIgAT8IUB59IczeyEBEiABEiABEiABEiABEiABowlQHo2Oj8WTAAmQAAmQAAmQAAmQAAmQgD8EKI/+cGYvJEACJEACJEACJEACJEACJGA0Ad/lUV0f0r4MyF133YXJyUmjAdZL8eqSLXZuJ06cgLpuJ2/yCajcjh07Zl3XVH619VuhfU1d+z1mX0+3fonIfeXqO0t9d6ms+N6Sm5OzMuf3FzNzkjHjMb/HzMhJVZn9Xaay400ugey83P728FUe1ZfuAw88cCiMaqWiiMhdqezKVE5uVyh7Gd4HT2B9fd36ccsfS8FnUaoC9R5Tf6ypm/1hzi/dUtT8n26/p+ys+B3mfwbl9qh+d7zwwguHizGzQxRGPLDfc/wekx+X/d1lfz7Kr5gVqt/29u97+73mJj/f5fHkyZOHW63Uh/rx48e5VUTw+qtWJiX46p43swioD4TXX3+d7zGzYrOqVT9w7Q90A8uv2ZLVl6rzD0/1uai+w9R3GW9mEODvDjNysqvk95hNQv69+nzk95b8nJwVqrycsqieu/nj2ld5VAU7C1UFuinS+UL52F8CaqVSwq9+MNm71DlXNH+rYW9uCaiMVGZDQ0OUR7fQhMxn/3vLz0YhgTjKyP7OsrPiZ6IDkvCHKkPnHwDCy63r8vg9Zlb86ve9+sOau/Wbk5v6M83eqFfOxqJA5NGWEHXPL13ZK5n6onUem6ry4u4jsjNz/rPufCy7alZnE1BfwPxxa9OQdZ/9ryzlUVY+papR31/O77NS83N6cASc313Ox8FVxJ6LEbA/C53fXerzUg28ySWg3lu27Csnc+ZXrGrP5FFJhy2JdjHZ4qGKdh4DWaxQTvOeQL7M1Djnm9/+gKD0e5+Hmx6yM7P/ObLz4ZeuG4r+zqPeT/Zno/O9pbJTf8w4x/lbGXsrRUC939Rg3/h5aJOQf6/eV/zjU35OqsLs9xW/x+Tnlp2Zqpi5yc7Nzsz5naY+J938BvFMHvMhUwU5i7QLt3/o5luG44IloLJxrkjMLNg8SvWu8rLFJPue77NS9IKbzj/SgmNfTs/q+8v5echjHsuhF8y89neW87dHMJWwV7cE+D3mlpSs+dRno/N3BuVRVj7Z1eTLR+Vnb/DLnt/53Fd5VEU5//njDyZnFDIf21tD7A+E7AxlVs2qbAL5PhzsabyXQyD7jzU5lbESJ4FsWcyWSee8fCyDgNsfQzKqZRX5CPB7LB8VeeOyfx+q7zXnn23yKq7vivL9seY2M1/lUcWkvmztLSI89sCMFVd9cNv7RDMzMzKzq+SXrk1C7r39AW5/Ltr3bv79k/uqarcy9QOJGZmTr/M3h50bv8fMyU9Vyu8xc/Jyvt/4HSY/N3sDkf3Z6Fb2fZdH+ShZIQmQAAmQAAmQAAmQAAmQAAmQQDYBymM2ET4nARIgARIgARIgARIgARIgARLIIUB5zEHCESRAAiRAAiRAAiRAAiRAAiRAAtkEKI/ZRPicBEiABEiABEiABEiABEiABEggh8D/B2u+cVs8/VC8AAAAAElFTkSuQmCC;" vertex="1" parent="1">
          <mxGeometry x="320" y="129.37" width="580" height="346.98" as="geometry" />
        </mxCell>
        <mxCell id="qxa5r1v7U55B4Vl_yPWk-6" value="&lt;span lang=&quot;EN-US&quot;&gt;&lt;font style=&quot;font-size: 27px&quot; face=&quot;Times New Roman&quot;&gt;&lt;i&gt;σ&lt;/i&gt;(&lt;i&gt;x&lt;/i&gt;)&lt;/font&gt;&lt;br&gt;&lt;/span&gt;" style="text;html=1;resizable=0;autosize=1;align=center;verticalAlign=middle;points=[];fillColor=none;strokeColor=none;rounded=0;" vertex="1" parent="1">
          <mxGeometry x="260" y="290" width="60" height="20" as="geometry" />
        </mxCell>
      </root>
    </mxGraphModel>
  </diagram>
</mxfile>
